<?xml version="1.0" encoding="utf-8"?>
<!-- Generator: Adobe Illustrator 27.5.0, SVG Export Plug-In . SVG Version: 6.00 Build 0)  -->
<svg version="1.1" xmlns="http://www.w3.org/2000/svg" xmlns:xlink="http://www.w3.org/1999/xlink" x="0px" y="0px"
	 viewBox="0 0 2475 1650" style="enable-background:new 0 0 2475 1650;" xml:space="preserve">
<g id="Background">
	<rect style="fill:#000D27;" width="2475" height="1650"/>
</g>
<g id="Illustration">
	<g>
		
			<linearGradient id="SVGID_1_" gradientUnits="userSpaceOnUse" x1="148.797" y1="789.1384" x2="2378.5488" y2="789.1384" gradientTransform="matrix(1 0.0024 -0.0024 1 -4.811 -1.0668)">
			<stop  offset="0" style="stop-color:#DAE3FE"/>
			<stop  offset="1" style="stop-color:#E9EFFD"/>
		</linearGradient>
		<path style="fill:url(#SVGID_1_);" d="M711.241,1465.363c0,0-197.875-26.025-291.911-6.31
			c-94.036,19.715-326.587-89.055-249.011-258.699c77.576-169.643,165.198-274.671,64.484-367.784
			c-100.714-93.113-132.024-270.051-27.706-369.189c104.318-99.138,135.397,3.204,218.403-33.198
			c83.006-36.402-21.816-227.595,212.557-280.983c234.373-53.387,415.988,110.097,522.538,91.941
			c106.549-18.156,270.582-130.637,385.505-125.604c114.922,5.033,100.26,171.179,252.796,161.865
			c152.535-9.314,272.297-25.758,370.751,115.949c98.455,141.708,74.254,321.075-20.114,391.752
			c-94.367,70.676-76.222,166.076,97.439,171.969c173.662,5.893,153.616,203.623,11.537,349.283s-263.661,146.981-405.246,156.203
			C1711.678,1471.781,711.241,1465.363,711.241,1465.363z"/>
		<g>
			<path style="fill:#91B3FA;" d="M1005.813,1375.319c77.23,13.96,177.442-52.319,210.716-126.166
				c34.243-75.996-25.283-109.227-22.812-215.532c2.807-120.76,81.008-137.49,135.581-299.305
				c12.313-36.508,83.565-247.781,0.98-289.193c-76.358-38.29-294.79,63.337-335.28,197.925
				c-28.871,95.968,53.982,138.055,19.925,249.821c-29.883,98.067-103.555,98.103-133.567,192.696
				C844.818,1200.723,904.41,1356.989,1005.813,1375.319z"/>
			<path style="fill:#7D97F4;" d="M1016.566,1397.587c-13.522-122.54,20.921-310.545,52.195-446.685
				c33.859-147.394,71.397-267.433,71.772-268.629l4.86,1.526c-0.375,1.194-37.861,121.074-71.677,268.28
				c-31.182,135.744-65.53,323.128-52.087,444.951L1016.566,1397.587z"/>
		</g>
		<g>
			<path style="fill:#BDD0FB;" d="M1089.563,1416.583c-61.273-33.412-80.364-144.532-44.509-179.853
				c24.227-23.865,57.828,2.353,91.186-22.23c42.591-31.387,12.852-92.576,47.343-170.554
				c29.353-66.36,97.926-128.383,137.054-114.652c40.958,14.373,60.762,115.651,24.417,175.691
				c-23.636,39.045-58.711,40.322-67.006,76.895c-9.625,42.437,32.622,62.671,32.074,103.979
				C1309.139,1360.059,1170.623,1460.784,1089.563,1416.583z"/>
			<path style="fill:#7D97F4;" d="M1122.42,1445.568c-0.369-0.007-0.742-0.095-1.093-0.274c-1.242-0.632-1.735-2.149-1.104-3.39
				c85.231-167.501,112.991-363.159,113.261-365.116c0.191-1.379,1.465-2.344,2.842-2.152c1.379,0.19,2.343,1.463,2.152,2.842
				c-0.271,1.965-28.15,198.465-113.762,366.712C1124.264,1445.08,1123.356,1445.586,1122.42,1445.568z"/>
			
				<linearGradient id="SVGID_00000111877488615926979530000006541817443779716017_" gradientUnits="userSpaceOnUse" x1="1295.3569" y1="1038.4526" x2="1347.0162" y2="1038.4526">
				<stop  offset="0" style="stop-color:#DAE3FE"/>
				<stop  offset="1" style="stop-color:#E9EFFD"/>
			</linearGradient>
			<path style="fill:url(#SVGID_00000111877488615926979530000006541817443779716017_);" d="M1296.799,1129.028
				c-0.319,0-0.641-0.106-0.908-0.322c-0.62-0.502-0.715-1.411-0.214-2.029c47.995-59.264,51.894-104.107,46.713-131.288
				c-5.585-29.304-22.556-44.843-22.727-44.995c-0.593-0.534-0.641-1.446-0.109-2.039c0.533-0.592,1.446-0.638,2.038-0.108
				c0.727,0.654,17.867,16.35,23.633,46.603c5.295,27.782,1.386,73.521-47.305,133.643
				C1297.636,1128.845,1297.219,1129.028,1296.799,1129.028z"/>
			<path style="fill:#BDD0FB;" d="M1084.285,1401.953c-0.469,0-0.93-0.228-1.207-0.65c-38.747-58.904-51.476-104.115-37.834-134.375
				c12.151-26.952,41.629-31.455,41.925-31.497c0.793-0.111,1.519,0.434,1.632,1.225c0.114,0.788-0.434,1.519-1.223,1.633
				c-0.281,0.039-28.242,4.352-39.719,29.859c-13.184,29.3-0.523,73.566,37.63,131.568c0.438,0.666,0.253,1.561-0.413,2
				C1084.833,1401.877,1084.557,1401.953,1084.285,1401.953z"/>
		</g>
		<g>
			<path style="fill:#BDD0FB;" d="M748.115,1522.012c-146.385,10.547-304.317-110.644-298.845-199.022
				c4.746-76.647,130.732-101.721,123.277-165.117c-8.955-76.15-195.309-78.957-212.393-163.67
				c-16.385-81.249,143.218-137.287,128.676-218.767c-15.534-87.03-205.942-69.696-250.76-178.488
				c-37.379-90.733,38.882-239.158,163.479-291.28c101.397-42.417,243.827-24.829,285.132,48.897
				c56.38,100.634-114.562,236.406-57.278,333.083c52.859,89.21,232.253,30.706,272.961,114.06
				c43.817,89.719-131.078,224.951-87.932,291.807c37.91,58.74,189.669-19.715,232.532,36.039
				C1103.646,1203.279,965.785,1506.33,748.115,1522.012z"/>
			
				<linearGradient id="SVGID_00000060012924167079938750000004686330824026520218_" gradientUnits="userSpaceOnUse" x1="437.5995" y1="927.0477" x2="808.3157" y2="927.0477">
				<stop  offset="0" style="stop-color:#DAE3FE"/>
				<stop  offset="1" style="stop-color:#E9EFFD"/>
			</linearGradient>
			<path style="fill:url(#SVGID_00000060012924167079938750000004686330824026520218_);" d="M439.145,450.391
				c37.132,76.862,72.031,154.695,105.953,232.932c17.082,39.071,33.476,78.422,50.03,117.714
				c8.204,19.673,16.148,39.453,24.225,59.179c8.031,19.743,16.176,39.445,23.922,59.303l23.387,59.513
				c7.647,19.897,15.397,39.755,22.89,59.709l5.656,14.951l5.528,15.001l11.057,30.001l10.998,30.02l10.578,30.175
				c28.191,80.418,55.177,161.487,74.946,244.392l-1.624,0.425c-26.255-80.987-56.474-160.533-86.95-239.997l-11.447-29.788
				l-11.632-29.727l-11.572-29.746l-5.786-14.872l-5.916-14.827c-7.947-19.747-15.636-39.59-23.429-59.393l-23.709-59.294
				l-94.902-237.207c-31.666-79.076-63.139-158.245-93.75-237.812L439.145,450.391z"/>
		</g>
		<g>
			<path style="fill:#91B3FA;" d="M609.513,1494.917c-97.958,52.963-242.901-8.043-257.222-73.61
				c-12.21-55.907,74.493-97.072,57.537-146.857c-20.073-58.938-152.75-34.024-178.589-98.097
				c-22.122-54.854,60.165-110.209,35.554-160.904c-23.036-47.448-104.49-18.256-144.14-71.815
				c-34.091-46.05-28.596-141.546,36.229-190.364c57.881-43.589,145.433-36.688,176.762,4.051
				c41.423,53.864-35.978,140.174,3.654,188.092c43.526,52.626,163.231-19.625,206.454,29.428
				c53.923,61.197-75.324,238.399-36.444,269.227c30.395,24.1,116.981-78.179,162.93-52.827
				C726.164,1220.993,730.002,1429.773,609.513,1494.917z"/>
			<path style="opacity:0.47;fill:#FFFFFF;" d="M221.915,827.987l87.345,151.01l43.764,75.411l21.927,37.672l22.119,37.556
				c7.29,12.569,14.789,25.01,22.215,37.496c7.46,12.465,14.831,24.986,22.362,37.405l22.505,37.318l22.804,37.132
				c7.502,12.444,15.411,24.62,23.066,36.967l11.561,18.47c3.817,6.183,7.908,12.181,11.783,18.325l11.772,18.339
				c3.945,6.101,7.784,12.277,11.905,18.254l12.172,18.077l12.053,18.178l-1.522,1.108
				c-35.504-46.148-68.482-94.206-100.277-142.971l-23.64-36.714l-23.076-37.062c-7.768-12.31-15.224-24.805-22.734-37.269
				c-7.497-12.471-15.069-24.9-22.428-37.451l-22.091-37.647l-21.761-37.835c-7.26-12.608-14.261-25.363-21.404-38.036
				c-7.132-12.679-14.195-25.397-21.136-38.182c-14.022-25.493-27.75-51.147-41.291-76.898
				c-13.476-25.787-26.869-51.614-39.652-77.766L221.915,827.987z"/>
			<path style="opacity:0.47;fill:#FFFFFF;" d="M218.225,853.749c-36.261-8.645-65.756-57.376-66.05-57.869l1.616-0.964
				c0.29,0.482,29.383,48.541,64.871,57.002L218.225,853.749z"/>
			<path style="opacity:0.47;fill:#FFFFFF;" d="M232.232,878.882c-48.867-1.05-87.47-39.526-87.855-39.914l1.339-1.324
				c0.379,0.383,38.466,38.323,86.558,39.356L232.232,878.882z"/>
			<path style="opacity:0.47;fill:#FFFFFF;" d="M240.49,906.003c-52.478,17.804-102.043-12.743-102.536-13.052l1-1.595
				c0.488,0.307,49.318,30.376,100.931,12.865L240.49,906.003z"/>
			<path style="opacity:0.47;fill:#FFFFFF;" d="M257.803,924.527c-48.532,22.628-102.689,11.081-103.231,10.961l0.406-1.839
				c0.534,0.117,54.089,11.524,102.029-10.829L257.803,924.527z"/>
			<path style="opacity:0.47;fill:#FFFFFF;" d="M269.192,945.128c-36.86,19.691-81.6,13.438-82.048,13.372l0.273-1.862
				c0.441,0.064,44.586,6.223,80.887-13.17L269.192,945.128z"/>
			
				<rect x="244.714" y="967.882" transform="matrix(0.9466 -0.3223 0.3223 0.9466 -298.2777 136.2825)" style="opacity:0.47;fill:#FFFFFF;" width="35.333" height="1.882"/>
			
				<rect x="268.26" y="984.852" transform="matrix(0.964 -0.2659 0.2659 0.964 -252.0224 109.7281)" style="opacity:0.47;fill:#FFFFFF;" width="22.093" height="1.883"/>
			
				<rect x="283.577" y="1005.957" transform="matrix(0.9987 -0.0501 0.0501 0.9987 -50.116 15.9697)" style="opacity:0.47;fill:#FFFFFF;" width="19.346" height="1.882"/>
			
				<rect x="301.545" y="1015.301" transform="matrix(0.0515 -0.9987 0.9987 0.0515 -739.6557 1277.1333)" style="opacity:0.47;fill:#FFFFFF;" width="1.882" height="25.277"/>
			
				<rect x="308.069" y="1027.668" transform="matrix(0.2619 -0.9651 0.9651 0.2619 -783.6242 1071.9575)" style="opacity:0.47;fill:#FFFFFF;" width="1.882" height="41.254"/>
			
				<rect x="310.736" y="1039.62" transform="matrix(0.2691 -0.9631 0.9631 0.2691 -807.9676 1086.2225)" style="opacity:0.47;fill:#FFFFFF;" width="1.884" height="71.646"/>
			
				<rect x="314.39" y="1055.472" transform="matrix(0.2287 -0.9735 0.9735 0.2287 -831.8997 1158.7808)" style="opacity:0.47;fill:#FFFFFF;" width="1.883" height="97.824"/>
			
				<rect x="321.564" y="1065.994" transform="matrix(0.2588 -0.9659 0.9659 0.2588 -857.7532 1153.181)" style="opacity:0.47;fill:#FFFFFF;" width="1.882" height="138.972"/>
			<path style="opacity:0.47;fill:#FFFFFF;" d="M403.501,1179.504c-66.859,4.894-158.841-42.844-159.761-43.326l0.874-1.669
				c0.916,0.48,92.429,47.973,158.751,43.118L403.501,1179.504z"/>
			<path style="opacity:0.47;fill:#FFFFFF;" d="M421.58,1223.221c-97.608-5.933-176.849-58.433-177.639-58.963l1.049-1.564
				c0.785,0.527,79.621,52.747,176.703,58.646L421.58,1223.221z"/>
			
				<rect x="424.372" y="1228.526" transform="matrix(0.1981 -0.9802 0.9802 0.1981 -880.2043 1416.007)" style="opacity:0.47;fill:#FFFFFF;" width="1.883" height="34.856"/>
			
				<rect x="439.167" y="1254.75" transform="matrix(0.2402 -0.9707 0.9707 0.2402 -901.1981 1394.322)" style="opacity:0.47;fill:#FFFFFF;" width="1.883" height="36.211"/>
			
				<rect x="451.505" y="1273.383" transform="matrix(0.1898 -0.9818 0.9818 0.1898 -908.0233 1495.9835)" style="opacity:0.47;fill:#FFFFFF;" width="1.884" height="49.611"/>
			
				<rect x="457.998" y="1288.792" transform="matrix(0.1032 -0.9947 0.9947 0.1032 -905.1781 1643.6617)" style="opacity:0.47;fill:#FFFFFF;" width="1.883" height="70.05"/>
			<path style="opacity:0.47;fill:#FFFFFF;" d="M505.628,1349.895c-51.888,0.788-100.46-6.405-100.944-6.478l0.279-1.862
				c0.483,0.072,48.908,7.243,100.638,6.458L505.628,1349.895z"/>
			<path style="opacity:0.47;fill:#FFFFFF;" d="M519.897,1381.835c-61.747,12.523-129.894-6.506-130.576-6.7l0.515-1.811
				c0.677,0.192,68.397,19.095,129.686,6.665L519.897,1381.835z"/>
			<path style="opacity:0.47;fill:#FFFFFF;" d="M542.329,1416.226c-85.738,20.511-171.74-12.538-172.598-12.874l0.687-1.754
				c0.853,0.334,86.323,33.169,171.473,12.797L542.329,1416.226z"/>
			<path style="opacity:0.47;fill:#FFFFFF;" d="M564.423,1443.82c-90.494,41.073-171.283,1.152-172.087,0.745l0.85-1.681
				c0.798,0.405,80.812,39.908,170.46-0.777L564.423,1443.82z"/>
			<path style="opacity:0.47;fill:#FFFFFF;" d="M597.788,1473.371c-65.102,35.806-169.001,5.91-170.051,5.601l0.53-1.807
				c1.041,0.307,104.202,29.981,168.609-5.442c0.424-0.233,0.842-0.465,1.261-0.704l0.93,1.637
				C598.643,1472.899,598.216,1473.135,597.788,1473.371z"/>
		</g>
		<g>
			<g>
				<path style="fill:#7D97F4;" d="M1461.266,1039.529l-0.207-123.269H1348.84l0.207,115.835
					c0,62.098-19.973,122.548-56.969,172.422l-147.817,199.273c-7.723,10.411-11.892,23.03-11.892,35.993v0.088
					c0,33.366,27.048,60.414,60.415,60.414h425.939c33.366,0,60.415-27.048,60.415-60.414l0,0c0-13.017-4.204-25.686-11.987-36.121
					l-153.159-205.342C1479.759,1152.511,1461.266,1096.786,1461.266,1039.529z"/>
				<path style="fill:#BDD0FB;" d="M1192.784,1485.181c-24.984,0-45.311-20.327-45.311-45.31c0-9.742,3.167-19.329,8.919-27.083
					l147.817-199.273c38.654-52.11,59.942-116.54,59.942-181.421l-0.181-100.731h82.009l0.182,108.19
					c0,60.076,19.79,119.708,55.723,167.885l153.159,205.341c5.797,7.773,8.99,17.394,8.99,27.091
					c0,24.983-20.326,45.31-45.31,45.31H1192.784z"/>
				<path style="fill:#7D97F4;" d="M1464.408,938.413h-118.731c-9.593,0-17.369-7.776-17.369-17.369l0,0
					c0-9.23,7.22-16.848,16.437-17.344l118.731-6.383c9.945-0.535,18.301,7.385,18.301,17.344v6.383
					C1481.777,930.636,1474.001,938.413,1464.408,938.413z"/>
				
					<linearGradient id="SVGID_00000076605466449893581450000006794110053911165620_" gradientUnits="userSpaceOnUse" x1="1147.4738" y1="1403.1294" x2="1664.0334" y2="1403.1294">
					<stop  offset="0" style="stop-color:#FE7062"/>
					<stop  offset="1" style="stop-color:#FF928E"/>
				</linearGradient>
				<path style="fill:url(#SVGID_00000076605466449893581450000006794110053911165620_);" d="M1156.392,1412.788
					c-5.752,7.754-8.919,17.34-8.919,27.083c0,24.983,20.326,45.31,45.31,45.31h425.939c24.984,0,45.31-20.327,45.31-45.31
					c0-9.696-3.193-19.319-8.99-27.091l-68.398-91.702h-362.224L1156.392,1412.788z"/>
			</g>
			<g>
				<path style="fill:#7D97F4;" d="M1730.776,1500.255L1730.776,1500.255c-23.626,0-42.779-19.153-42.779-42.779v-306.139h94.916
					l-9.358,306.139C1773.555,1481.102,1754.402,1500.255,1730.776,1500.255z"/>
				
					<linearGradient id="SVGID_00000085249737211973231880000018393036616457194896_" gradientUnits="userSpaceOnUse" x1="1698.0231" y1="1320.783" x2="1772.5752" y2="1320.783">
					<stop  offset="0" style="stop-color:#DAE3FE"/>
					<stop  offset="1" style="stop-color:#E9EFFD"/>
				</linearGradient>
				<path style="fill:url(#SVGID_00000085249737211973231880000018393036616457194896_);" d="M1730.776,1490.229
					c-18.06,0-32.753-14.693-32.753-32.753v-306.139h74.552l-9.047,305.985v0.154
					C1763.528,1475.535,1748.835,1490.229,1730.776,1490.229z"/>
				<path style="fill:#7D97F4;" d="M1782.879,1158.69h-96.185c-7.771,0-14.07-6.3-14.07-14.071l0,0
					c0-7.478,5.848-13.649,13.315-14.051l96.185-5.171c8.056-0.433,14.826,5.983,14.826,14.05v5.171
					C1796.95,1152.39,1790.65,1158.69,1782.879,1158.69z"/>
				
					<linearGradient id="SVGID_00000065778276021810748770000001291765349828296354_" gradientUnits="userSpaceOnUse" x1="1773.7302" y1="1326.5017" x2="1545.7299" y2="1610.502">
					<stop  offset="0" style="stop-color:#FF928E"/>
					<stop  offset="1" style="stop-color:#FEB3B1"/>
				</linearGradient>
				<path style="fill:url(#SVGID_00000065778276021810748770000001291765349828296354_);" d="M1698.023,1291.038v166.438
					c0,18.059,14.693,32.753,32.753,32.753c18.06,0,32.753-14.693,32.753-32.753v-0.154l4.916-166.284H1698.023z"/>
			</g>
			<g>
				<path style="fill:#7D97F4;" d="M1600.347,1503.306L1600.347,1503.306c-23.626,0-42.779-19.153-42.779-42.779v-306.138h94.917
					l-9.358,306.138C1643.126,1484.153,1623.973,1503.306,1600.347,1503.306z"/>
				
					<linearGradient id="SVGID_00000051361276102831121950000016848546153760643998_" gradientUnits="userSpaceOnUse" x1="1567.5941" y1="1323.8339" x2="1642.1466" y2="1323.8339">
					<stop  offset="0" style="stop-color:#DAE3FE"/>
					<stop  offset="1" style="stop-color:#E9EFFD"/>
				</linearGradient>
				<path style="fill:url(#SVGID_00000051361276102831121950000016848546153760643998_);" d="M1600.347,1493.28
					c-18.06,0-32.753-14.693-32.753-32.753v-306.138h74.552l-9.047,305.985v0.153
					C1633.1,1478.587,1618.407,1493.28,1600.347,1493.28z"/>
				<path style="fill:#7D97F4;" d="M1652.45,1161.741h-96.185c-7.771,0-14.071-6.3-14.071-14.071l0,0
					c0-7.477,5.849-13.649,13.315-14.05l96.185-5.172c8.056-0.433,14.826,5.983,14.826,14.051v5.171
					C1666.521,1155.441,1660.221,1161.741,1652.45,1161.741z"/>
				
					<linearGradient id="SVGID_00000067933101672110739660000004080706857038642560_" gradientUnits="userSpaceOnUse" x1="1653.8105" y1="1320.9806" x2="1365.8104" y2="1656.9807">
					<stop  offset="0" style="stop-color:#FF928E"/>
					<stop  offset="1" style="stop-color:#FEB3B1"/>
				</linearGradient>
				<path style="fill:url(#SVGID_00000067933101672110739660000004080706857038642560_);" d="M1567.594,1294.089v166.438
					c0,18.06,14.693,32.753,32.753,32.753c18.06,0,32.753-14.693,32.753-32.753v-0.153l4.917-166.284H1567.594z"/>
			</g>
		</g>
		<g>
			
				<linearGradient id="SVGID_00000065047351559924017460000009790561287373675184_" gradientUnits="userSpaceOnUse" x1="920.8643" y1="1294.031" x2="625.134" y2="1729.844">
				<stop  offset="0" style="stop-color:#09005D"/>
				<stop  offset="1" style="stop-color:#1A0F91"/>
			</linearGradient>
			<path style="fill:url(#SVGID_00000065047351559924017460000009790561287373675184_);" d="M1165.543,1520.229
				c-229.166,31.734-465.968,32.088-711.222-2.298c-29.887-4.19-49.272-33.729-41.146-62.794l13.699-48.995
				c4.278-15.302,17.668-26.325,33.51-27.534c240.973-18.392,476.375-26.617,695.832-5.737
				c14.794,1.408,27.625,10.802,33.319,24.528l19.531,47.082C1222.927,1477.893,1201.374,1515.267,1165.543,1520.229z"/>
			
				<linearGradient id="SVGID_00000039833423706453230770000006119029279457335230_" gradientUnits="userSpaceOnUse" x1="811.633" y1="707.1829" x2="940.5924" y2="707.1829">
				<stop  offset="0" style="stop-color:#09005D"/>
				<stop  offset="1" style="stop-color:#1A0F91"/>
			</linearGradient>
			<path style="fill:url(#SVGID_00000039833423706453230770000006119029279457335230_);" d="M811.633,543.198l66.159,332.332
				c0.841,4.223,4.106,7.546,8.321,8.425c9.715,2.028,28.387,3.345,49.071-8.711c3.987-2.324,6.099-6.894,5.206-11.421
				l-66.027-334.74L811.633,543.198z"/>
			
				<linearGradient id="SVGID_00000096034302642050992400000009582168447240528027_" gradientUnits="userSpaceOnUse" x1="848.9769" y1="838.9873" x2="851.9771" y2="148.9202">
				<stop  offset="0" style="stop-color:#4042E2"/>
				<stop  offset="1" style="stop-color:#4F52FF"/>
			</linearGradient>
			<path style="fill:url(#SVGID_00000096034302642050992400000009582168447240528027_);" d="M750.268,326.704l102.451,514.635
				c1.302,6.54,6.358,11.685,12.885,13.047c15.044,3.14,43.958,5.179,75.988-13.49c6.173-3.598,9.445-10.675,8.062-17.686
				L847.408,304.847L750.268,326.704z"/>
			
				<linearGradient id="SVGID_00000096747433502936715010000011581373915463328418_" gradientUnits="userSpaceOnUse" x1="1131.587" y1="-241.8259" x2="1032.5774" y2="1.1983">
				<stop  offset="0" style="stop-color:#4042E2"/>
				<stop  offset="1" style="stop-color:#4F52FF"/>
			</linearGradient>
			<path style="fill:url(#SVGID_00000096747433502936715010000011581373915463328418_);" d="M705.703,203.367l121.732,595.501
				c1.755,8.816,8.57,15.751,17.369,17.587c20.279,4.233,59.253,6.982,102.429-18.184c8.321-4.85,12.732-14.39,10.868-23.839
				L836.644,173.906L705.703,203.367z"/>
			
				<linearGradient id="SVGID_00000103964116656304463920000015595513461406039193_" gradientUnits="userSpaceOnUse" x1="741.2585" y1="370.5065" x2="800.404" y2="-15.4975">
				<stop  offset="0" style="stop-color:#09005D"/>
				<stop  offset="1" style="stop-color:#1A0F91"/>
			</linearGradient>
			<path style="fill:url(#SVGID_00000103964116656304463920000015595513461406039193_);" d="M694.103,201.474l3.915,7.048
				c2.626,4.726,8.013,7.203,13.31,6.12l125.233-25.616c5.765-1.179,9.904-6.251,9.904-12.135v-10.424
				c0-7.935-7.357-13.824-15.099-12.085l-129.148,28.992C694.148,185.184,690.087,194.244,694.103,201.474z"/>
			
				<linearGradient id="SVGID_00000155855437898250091550000013157477527836115645_" gradientUnits="userSpaceOnUse" x1="787.097" y1="377.5304" x2="846.2424" y2="-8.4724">
				<stop  offset="0" style="stop-color:#4042E2"/>
				<stop  offset="1" style="stop-color:#4F52FF"/>
			</linearGradient>
			<path style="fill:url(#SVGID_00000155855437898250091550000013157477527836115645_);" d="M730.167,310.267l131.14-26.559
				l10.107,0.846c4.813,0.403,9.038,3.362,11.061,7.748l0,0c0,5.923-2.414,11.591-6.684,15.696l-8.148,7.831l-131.083,26.549
				l-17.217-6.604c-2.456-0.942-4.47-2.769-5.647-5.122l0,0c-2.616-5.232-0.542-11.594,4.655-14.279L730.167,310.267z"/>
			
				<linearGradient id="SVGID_00000040566268568532126660000017376454803724206466_" gradientUnits="userSpaceOnUse" x1="499.4301" y1="846.5408" x2="956.1285" y2="846.5408">
				<stop  offset="0" style="stop-color:#09005D"/>
				<stop  offset="1" style="stop-color:#1A0F91"/>
			</linearGradient>
			<path style="fill:url(#SVGID_00000040566268568532126660000017376454803724206466_);" d="M743.349,568.367l-17.375-147.684
				c-1.275-10.84,6.076-20.812,16.809-22.799l139.137-25.766c10.22-1.893,20.022,4.916,21.816,15.153l52.392,298.943
				c0,0-85.112,36.009-193.139,36.009c0,0-19.641-42.556-49.103-39.282c-29.462,3.273-121.121,42.556-104.753,225.874
				s147.309,160.403,147.309,160.403l55.65,252.062c0,0-283.206-49.24-310.986-363.362
				C483.958,764.003,602.894,640.257,649.7,599.533c10.946-9.524,24.163-16.06,38.341-19.142L743.349,568.367z"/>
			
				<linearGradient id="SVGID_00000110434405276770455270000012436079380581600695_" gradientUnits="userSpaceOnUse" x1="645.7626" y1="1472.6694" x2="820.087" y2="1161.3755">
				<stop  offset="0" style="stop-color:#4042E2"/>
				<stop  offset="1" style="stop-color:#4F52FF"/>
			</linearGradient>
			<path style="fill:url(#SVGID_00000110434405276770455270000012436079380581600695_);" d="M607.394,1370.693l50.523-190.062
				c6.944-26.123,30.593-44.307,57.623-44.307h29.764c26.813,0,50.201,18.21,56.773,44.205l48.137,190.39
				c3.081,12.185-6.13,24.014-18.698,24.014H626.033C613.367,1394.934,604.14,1382.934,607.394,1370.693z"/>
			
				<linearGradient id="SVGID_00000123417040369364425880000004657590760491645843_" gradientUnits="userSpaceOnUse" x1="831.9155" y1="1082.8658" x2="533.0734" y2="1490.6604">
				<stop  offset="0" style="stop-color:#09005D"/>
				<stop  offset="1" style="stop-color:#1A0F91"/>
			</linearGradient>
			<circle style="fill:url(#SVGID_00000123417040369364425880000004657590760491645843_);" cx="735.165" cy="1214.89" r="42.556"/>
			
				<linearGradient id="SVGID_00000117639643813231440080000018279363721943828671_" gradientUnits="userSpaceOnUse" x1="965.4841" y1="1320.9421" x2="950.2643" y2="1124.4712">
				<stop  offset="0" style="stop-color:#09005D"/>
				<stop  offset="1" style="stop-color:#1A0F91"/>
			</linearGradient>
			<path style="fill:url(#SVGID_00000117639643813231440080000018279363721943828671_);" d="M1142.551,1047.939
				c-38.234-31.228-111.768-52.376-196.243-52.376c-84.475,0-158.009,21.149-196.243,52.376h-27.994v49.103
				c0,56.046,100.395,101.48,224.237,101.48c123.843,0,224.237-45.434,224.237-101.48v-49.103H1142.551z"/>
			
				<linearGradient id="SVGID_00000031186571755124063590000003285180777632041871_" gradientUnits="userSpaceOnUse" x1="937.447" y1="1157.4915" x2="952.6667" y2="969.3221">
				<stop  offset="0" style="stop-color:#09005D"/>
				<stop  offset="1" style="stop-color:#1A0F91"/>
			</linearGradient>
			
				<ellipse style="fill:url(#SVGID_00000031186571755124063590000003285180777632041871_);" cx="946.308" cy="1047.94" rx="224.237" ry="101.48"/>
			
				<linearGradient id="SVGID_00000176032424962213531900000016123867759747134109_" gradientUnits="userSpaceOnUse" x1="758.0797" y1="1046.3029" x2="1134.5363" y2="1046.3029">
				<stop  offset="0" style="stop-color:#4042E2"/>
				<stop  offset="1" style="stop-color:#4F52FF"/>
			</linearGradient>
			
				<ellipse style="fill:url(#SVGID_00000176032424962213531900000016123867759747134109_);" cx="946.308" cy="1046.303" rx="188.228" ry="76.928"/>
			<path style="fill:#7D97F4;" d="M946.308,982.469c98.555,0,179.365,30.962,187.502,70.381c0.446-2.16,0.727-4.34,0.727-6.547
				c0-42.486-84.273-76.928-188.228-76.928s-188.228,34.442-188.228,76.928c0,2.207,0.28,4.387,0.726,6.547
				C766.943,1013.431,847.753,982.469,946.308,982.469z"/>
			
				<linearGradient id="SVGID_00000062890993663952471370000015602430687194032010_" gradientUnits="userSpaceOnUse" x1="668.0574" y1="522.5372" x2="828.4608" y2="522.5372">
				<stop  offset="0" style="stop-color:#4042E2"/>
				<stop  offset="1" style="stop-color:#4F52FF"/>
			</linearGradient>
			
				<ellipse style="fill:url(#SVGID_00000062890993663952471370000015602430687194032010_);" cx="748.259" cy="522.537" rx="80.202" ry="75.291"/>
			
				<linearGradient id="SVGID_00000081614154944192313000000004237310241655888272_" gradientUnits="userSpaceOnUse" x1="694.2458" y1="527.4475" x2="802.2724" y2="527.4475">
				<stop  offset="0" style="stop-color:#09005D"/>
				<stop  offset="1" style="stop-color:#1A0F91"/>
			</linearGradient>
			<circle style="fill:url(#SVGID_00000081614154944192313000000004237310241655888272_);" cx="748.259" cy="527.447" r="54.013"/>
			<path style="fill:#7D97F4;" d="M1034.943,1439.577c-0.983,0-1.855-0.7-2.039-1.7c-0.208-1.128,0.539-2.209,1.666-2.416
				c12.91-2.37,25.758-5.013,38.188-7.855c1.113-0.251,2.231,0.445,2.485,1.562c0.256,1.117-0.443,2.229-1.561,2.486
				c-12.487,2.854-25.394,5.509-38.362,7.889C1035.194,1439.566,1035.067,1439.577,1034.943,1439.577z"/>
			<path style="fill:#7D97F4;" d="M825.045,1457.354c-199.712,0-366.603-41.776-368.729-42.317
				c-1.111-0.284-1.781-1.414-1.499-2.524c0.283-1.109,1.414-1.781,2.524-1.499c2.711,0.69,274.198,68.625,539.034,30.676
				c1.133-0.159,2.186,0.625,2.348,1.759c0.163,1.135-0.625,2.187-1.759,2.349C939.026,1454.101,880.745,1457.354,825.045,1457.354z
				"/>
			<path style="fill:#91B3FA;" d="M931.054,660.695c-0.996,0-1.875-0.717-2.045-1.732l-3.998-23.806
				c-0.19-1.13,0.573-2.2,1.703-2.391c1.138-0.183,2.202,0.575,2.391,1.703l3.998,23.806c0.19,1.13-0.573,2.2-1.703,2.391
				C931.283,660.686,931.167,660.695,931.054,660.695z"/>
			<path style="fill:#91B3FA;" d="M920.502,597.858c-0.995,0-1.875-0.717-2.045-1.732l-33.609-200.119
				c-0.653-3.889-4.235-6.512-8.132-5.986l-13.867,1.891c-1.125,0.158-2.182-0.638-2.337-1.776c-0.155-1.136,0.64-2.182,1.775-2.337
				l13.867-1.891c6.149-0.838,11.761,3.296,12.788,9.411l33.609,200.119c0.19,1.13-0.573,2.2-1.703,2.391
				C920.731,597.849,920.615,597.858,920.502,597.858z"/>
		</g>
		<g>
			
				<linearGradient id="SVGID_00000034080858831652844340000013014000573473888657_" gradientUnits="userSpaceOnUse" x1="662.0034" y1="1424.9279" x2="718.7309" y2="1361.2825">
				<stop  offset="0" style="stop-color:#FF928E"/>
				<stop  offset="1" style="stop-color:#FEB3B1"/>
			</linearGradient>
			<path style="fill:url(#SVGID_00000034080858831652844340000013014000573473888657_);" d="M734.684,1504.028
				c-0.172-0.066-92.908-162.469-105.44-177.752c-2.108-2.571-5.371-3.88-8.672-3.486l-25.884,3.085l-30.408,65.784l50.659-29.503
				c-5.013,34.669,60.066,86.191,82.385,104.99c2.265,1.908,2.451,5.325,0.405,7.467l-8.91,9.328
				c14.629,14.828,31.509,24.349,50.561,28.753L734.684,1504.028z"/>
			
				<linearGradient id="SVGID_00000067945780838381857660000016840068892036469165_" gradientUnits="userSpaceOnUse" x1="-5790.2275" y1="-326.6121" x2="-5911.7212" y2="-41.6264" gradientTransform="matrix(-0.8974 -0.4412 -0.4412 0.8974 -4761.8052 1782.8086)">
				<stop  offset="0" style="stop-color:#4042E2"/>
				<stop  offset="1" style="stop-color:#4F52FF"/>
			</linearGradient>
			<path style="fill:url(#SVGID_00000067945780838381857660000016840068892036469165_);" d="M693.973,1478.906
				c0,0-5.687,1.837-7.612,6.902c-0.921,2.424,0.072,5.168,2.179,6.678c9.364,6.709,40.253,28.369,54.506,32.611
				c1.169,0.348,2.28-0.709,2.017-1.9c-0.731-3.311-3.098-9.924-10.72-19.604l0.684,1.383c0.865,1.751-1.041,3.573-2.741,2.613
				C722.752,1502.207,703.333,1490.428,693.973,1478.906z"/>
			
				<linearGradient id="SVGID_00000090253793608414361170000005405105703856094376_" gradientUnits="userSpaceOnUse" x1="739.1631" y1="1323.3762" x2="691.1656" y2="1389.3728">
				<stop  offset="0" style="stop-color:#FF928E"/>
				<stop  offset="1" style="stop-color:#FEB3B1"/>
			</linearGradient>
			<path style="fill:url(#SVGID_00000090253793608414361170000005405105703856094376_);" d="M698.562,1543.887
				c-0.155-0.1-14.069-33.622-14.225-33.721c-12.757-77.67-43.881-144.188-53.06-161.691c-1.544-2.944-4.475-4.886-7.788-5.169
				l-25.973-2.217l-43.092,58.269l55.582-18.641c-11.925,32.937,41.38,96.563,59.433,119.491c1.832,2.327,1.323,5.711-1.114,7.394
				l-10.614,7.332c11.325,17.482,25.93,30.222,43.696,38.391L698.562,1543.887z"/>
			
				<linearGradient id="SVGID_00000008844455878520640180000013851398984288258700_" gradientUnits="userSpaceOnUse" x1="-5255.1313" y1="-722.3833" x2="-5376.625" y2="-437.3972" gradientTransform="matrix(-0.7895 -0.6137 -0.6137 0.7895 -4890.3872 2595.0203)">
				<stop  offset="0" style="stop-color:#4042E2"/>
				<stop  offset="1" style="stop-color:#4F52FF"/>
			</linearGradient>
			<path style="fill:url(#SVGID_00000008844455878520640180000013851398984288258700_);" d="M663.779,1511.046
				c0,0-5.941,0.647-8.852,5.219c-1.393,2.187-0.976,5.076,0.782,6.981c7.813,8.465,33.679,35.927,46.779,42.967
				c1.074,0.577,2.376-0.233,2.36-1.452c-0.046-3.391-1.025-10.346-6.531-21.368l0.39,1.493c0.493,1.89-1.742,3.289-3.214,2.004
				C687.246,1539.689,670.613,1524.224,663.779,1511.046z"/>
			<g>
				<path style="fill:#BDD0FB;" d="M475.942,1328.816c0,0-23.496,34.947-25.424,50.888c-1.928,15.941,6.497,21.454,31.089,23.487
					c73.182,6.05,109.258-15.883,109.258-15.883c5.006-31.919,8.568-40.04,50.378-57.395c0,0-52.883,4.198-63.525,0.069
					C567.076,1325.851,475.942,1328.816,475.942,1328.816z"/>
			</g>
			<g>
				
					<linearGradient id="SVGID_00000072962667071542807240000016434796339836269973_" gradientUnits="userSpaceOnUse" x1="333.0473" y1="1347.149" x2="617.6387" y2="1086.2739">
					<stop  offset="0" style="stop-color:#09005D"/>
					<stop  offset="1" style="stop-color:#1A0F91"/>
				</linearGradient>
				<path style="fill:url(#SVGID_00000072962667071542807240000016434796339836269973_);" d="M565.786,1119.358
					c-16.998,0-37.357,4.151-56.068,24.13c-4.523,4.829-10.501,8.166-17.055,7.258c-34.727-4.811-81,14.497-106.94,46.234
					c-33.73,41.268-20.286,87.884,12.107,114.36c32.393,26.476,71.469,22.787,105.199-18.481
					c13.489-16.504,24.072-36.516,29.85-56.286c2.367-8.099,9.788-13.47,18.225-13.446c0.052,0,0.103,0,0.155,0
					c28.655,0,56.036-36.828,56.036-64.337C607.294,1133.886,590.691,1119.358,565.786,1119.358z"/>
				
					<linearGradient id="SVGID_00000129916833887303822210000011607435148102173338_" gradientUnits="userSpaceOnUse" x1="13019.9131" y1="1208.6176" x2="12675.2539" y2="1541.077" gradientTransform="matrix(1 0 0 1 -12430.0557 0)">
					<stop  offset="0" style="stop-color:#DAE3FE"/>
					<stop  offset="1" style="stop-color:#E9EFFD"/>
				</linearGradient>
				<path style="fill:url(#SVGID_00000129916833887303822210000011607435148102173338_);" d="M539.484,1324.19
					c0,0,27.361-26.053,40.829-43.309c7.28-9.328,9.567-21.608,6.2-32.951c-6.149-20.716-17.077-42.172-18.073-45.512
					c-1.528-5.118-32.206-4.906-32.206-4.906s-60.37,39.181-84.089,105.549l26.638,8.293c0,0,15.763-26.444,31.337-43.258
					c0,0-26.949,35.601-27.898,50.175L539.484,1324.19z"/>
				
					<linearGradient id="SVGID_00000176764458260775683080000009221382369458928788_" gradientUnits="userSpaceOnUse" x1="380.6861" y1="1380.6592" x2="672.6868" y2="1252.6592">
					<stop  offset="0" style="stop-color:#FF928E"/>
					<stop  offset="1" style="stop-color:#FEB3B1"/>
				</linearGradient>
				<path style="fill:url(#SVGID_00000176764458260775683080000009221382369458928788_);" d="M591.616,1334.471l-20.559-22.369
					l-23.744,6.394c0,0-27.681,4.289-43.524,0c-15.843-4.288-15.843-4.288-15.843-4.288l-35.802-11.146l-5.623,15.891
					c-1.428,4.035,0.007,8.514,3.495,10.993c3.098,2.201,6.728,4.62,9.042,5.632c4.715,2.063,108.609,0.652,108.609,0.652
					L591.616,1334.471z"/>
				
					<linearGradient id="SVGID_00000179635591664047853220000004457618199889794230_" gradientUnits="userSpaceOnUse" x1="571.8025" y1="1167.9298" x2="516.3026" y2="1227.9297">
					<stop  offset="0" style="stop-color:#FF928E"/>
					<stop  offset="1" style="stop-color:#FEB3B1"/>
				</linearGradient>
				<path style="fill:url(#SVGID_00000179635591664047853220000004457618199889794230_);" d="M557.318,1160.626l-20.619,38.342
					c1.361,8.37,22.442,8.606,25.698,3.608c0.332-0.508,0.521-1.097,0.647-1.691l12.335-25.619
					c0.53-2.498-6.319-10.916-8.573-12.116l-8.195-4.363C555.454,1157.108,568.622,1156.976,557.318,1160.626z"/>
				<g>
					
						<linearGradient id="SVGID_00000062898704152768609360000005141850408541952918_" gradientUnits="userSpaceOnUse" x1="-8647.5313" y1="-3148.7766" x2="-8641.0313" y2="-3048.2769" gradientTransform="matrix(-0.5458 -0.8379 -0.8379 0.5458 -5098.8198 -5306.4175)">
						<stop  offset="0" style="stop-color:#FF928E"/>
						<stop  offset="1" style="stop-color:#FEB3B1"/>
					</linearGradient>
					<path style="fill:url(#SVGID_00000062898704152768609360000005141850408541952918_);" d="M599.048,1151.627
						c0,0,2.327,12.954-7.854,29.424c-10.182,16.471-20.321,15.727-25.471,9.853c-5.151-5.874-11.321-15.656-8.514-32.084
						C560.016,1142.393,595.531,1135.108,599.048,1151.627z"/>
					
						<linearGradient id="SVGID_00000030475655526126947940000011831476123158261909_" gradientUnits="userSpaceOnUse" x1="348.3435" y1="1363.8363" x2="632.9351" y2="1102.9611">
						<stop  offset="0" style="stop-color:#09005D"/>
						<stop  offset="1" style="stop-color:#1A0F91"/>
					</linearGradient>
					<path style="fill:url(#SVGID_00000030475655526126947940000011831476123158261909_);" d="M569.534,1160.606
						c0,0,16.487-21.655,29.144-2.777l-0.214,6.521c0,0,16.46-0.77,14.675-15.94c-1.785-15.171-15.223-25.534-33.852-20.351
						c-18.629,5.183-29.514,11.086-31.618,24.02c-2.104,12.934,8.457,10.821,8.457,10.821s4.034-8.924,8.906-9.534
						c4.871-0.609,3.111,6.45,3.111,6.45L569.534,1160.606z"/>
					
						<linearGradient id="SVGID_00000080164781075377706090000012822358447973756816_" gradientUnits="userSpaceOnUse" x1="-8628.7422" y1="-3149.9958" x2="-8622.2422" y2="-3049.4956" gradientTransform="matrix(-0.5458 -0.8379 -0.8379 0.5458 -5098.8198 -5306.4175)">
						<stop  offset="0" style="stop-color:#FF928E"/>
						<stop  offset="1" style="stop-color:#FEB3B1"/>
					</linearGradient>
					<path style="fill:url(#SVGID_00000080164781075377706090000012822358447973756816_);" d="M565.751,1160.028
						c0,0,8.54-11.082,0.767-13.382c-7.774-2.3-7.484,10.859-6.977,15.754L565.751,1160.028z"/>
				</g>
			</g>
			<g>
				
					<linearGradient id="SVGID_00000054255996984848862680000016085299153827892355_" gradientUnits="userSpaceOnUse" x1="569.3469" y1="1368.842" x2="558.8472" y2="1551.8339">
					<stop  offset="0" style="stop-color:#4042E2"/>
					<stop  offset="1" style="stop-color:#4F52FF"/>
				</linearGradient>
				<path style="fill:url(#SVGID_00000054255996984848862680000016085299153827892355_);" d="M523.563,1343.324
					c0.072,0.003,0.145,0.005,0.217,0.005l94.563-0.103c2.338-0.002,4.23-1.899,4.228-4.237c-0.002-2.339-1.906-4.27-4.238-4.228
					l-94.562,0.103c-2.337,0.002-4.23,1.899-4.228,4.237C519.545,1341.365,521.326,1343.213,523.563,1343.324z"/>
				
					<linearGradient id="SVGID_00000176004053735225586660000012207460945416173698_" gradientUnits="userSpaceOnUse" x1="5576.2563" y1="1305.9348" x2="6261.499" y2="1248.2822" gradientTransform="matrix(-1 0 0 1 6281.5176 0)">
					<stop  offset="0" style="stop-color:#09005D"/>
					<stop  offset="1" style="stop-color:#1A0F91"/>
				</linearGradient>
				<path style="fill:url(#SVGID_00000176004053735225586660000012207460945416173698_);" d="M703.35,1257.467h-78.752
					c-5.809,0-11.097,3.352-13.575,8.607l-36.407,77.199h97.868c3.744,0,7.108-2.287,8.484-5.769l28.232-71.436
					C710.83,1261.94,707.788,1257.467,703.35,1257.467z"/>
				<path style="fill:#7D97F4;" d="M647.868,1297.049c-1.707,5.302-0.446,10.452,2.816,11.501c3.262,1.05,7.29-2.397,8.996-7.699
					c1.707-5.302,0.446-10.451-2.816-11.501C653.602,1288.3,649.575,1291.747,647.868,1297.049z"/>
			</g>
			<path style="fill:#91B3FA;" d="M405.788,1279.256c-0.097,0-0.195-0.027-0.282-0.083c-15.161-9.827-22.93-31.015-18.471-50.383
				c3.983-17.298,16.556-33.068,34.495-43.268c14.336-8.151,32.097-13.019,54.297-14.881c1.43-0.121,2.869-0.23,4.313-0.34
				c11.25-0.857,22.884-1.744,32.291-7.733c5.47-3.482,9.846-8.524,14.077-13.4c1.298-1.495,2.594-2.99,3.923-4.443
				c4.761-5.21,12.18-12.259,21.596-13.316c0.273-0.036,0.541,0.172,0.574,0.458c0.031,0.285-0.173,0.541-0.458,0.574
				c-6.903,0.774-13.559,4.901-20.945,12.983c-1.322,1.447-2.614,2.935-3.904,4.423c-4.281,4.932-8.706,10.032-14.304,13.595
				c-9.626,6.128-21.391,7.025-32.77,7.893c-1.441,0.109-2.878,0.219-4.305,0.339c-22.047,1.85-39.669,6.675-53.871,14.75
				c-17.688,10.057-30.08,25.583-33.997,42.599c-4.364,18.957,3.216,39.682,18.023,49.278c0.241,0.156,0.309,0.477,0.154,0.718
				C406.124,1279.173,405.957,1279.256,405.788,1279.256z"/>
			<path style="fill:#91B3FA;" d="M412.637,1266.826c-0.167,0-0.331-0.081-0.432-0.231c-8.671-12.993-7.578-32.283,2.658-46.911
				c8.382-11.977,22.429-21.294,40.624-26.946c5.767-1.792,11.743-3.19,17.521-4.542c6.987-1.636,14.212-3.327,21.087-5.721
				c10.296-3.583,24.033-10.512,31.009-23.171c0.138-0.251,0.455-0.344,0.704-0.204c0.251,0.138,0.342,0.453,0.204,0.704
				c-7.134,12.947-21.11,20.008-31.577,23.651c-6.926,2.411-14.178,4.108-21.192,5.75c-5.761,1.348-11.718,2.742-17.449,4.523
				c-17.973,5.583-31.834,14.763-40.083,26.551c-9.996,14.285-11.083,33.094-2.644,45.74c0.159,0.238,0.094,0.56-0.144,0.719
				C412.837,1266.798,412.736,1266.826,412.637,1266.826z"/>
		</g>
		<g>
			<g>
				
					<linearGradient id="SVGID_00000103944628079118258500000005546815984715973005_" gradientUnits="userSpaceOnUse" x1="2728.1665" y1="1124.2513" x2="2794.4663" y2="1124.2513" gradientTransform="matrix(1 0 0 1 -898.6577 0)">
					<stop  offset="0" style="stop-color:#FF928E"/>
					<stop  offset="1" style="stop-color:#FEB3B1"/>
				</linearGradient>
				<path style="fill:url(#SVGID_00000103944628079118258500000005546815984715973005_);" d="M1853.372,1090.082
					c-6.802,7.26-16.816,13.533-23.863,17.445c10.524,13.009,24.765,26.036,43.617,38.787l5.396,12.108l17.287-20.719
					C1895.808,1137.702,1864.789,1122.265,1853.372,1090.082z"/>
				
					<linearGradient id="SVGID_00000010295091371669596920000006922669629096308140_" gradientUnits="userSpaceOnUse" x1="-241.6019" y1="1465.3497" x2="-191.8873" y2="1465.3497" gradientTransform="matrix(-1 0 0 1 1708.9733 0)">
					<stop  offset="0" style="stop-color:#09005D"/>
					<stop  offset="1" style="stop-color:#1A0F91"/>
				</linearGradient>
				<path style="fill:url(#SVGID_00000010295091371669596920000006922669629096308140_);" d="M1900.861,1483.052
					c-0.006-0.37,0.019-0.745,0.114-1.123c5.599-22.199,33.39-36.026,33.39-36.026l11.013,0.863
					c6.332,19.566,5.518,31.566,4.501,36.911c-0.028,0.15-0.073,0.292-0.113,0.437
					C1940.682,1484.925,1921.984,1485.455,1900.861,1483.052z"/>
				
					<linearGradient id="SVGID_00000173859995478902616510000007455139564680026753_" gradientUnits="userSpaceOnUse" x1="-228.7526" y1="1342.0839" x2="-248.7526" y2="1114.084" gradientTransform="matrix(-1 0 0 1 1708.9733 0)">
					<stop  offset="0" style="stop-color:#4042E2"/>
					<stop  offset="1" style="stop-color:#4F52FF"/>
				</linearGradient>
				<path style="fill:url(#SVGID_00000173859995478902616510000007455139564680026753_);" d="M1949.766,1484.114
					c-0.49,1.785-1.808,3.174-3.495,3.529c-12.922,2.718-33.462,0.53-42.085-0.597c-1.902-0.249-3.293-2.008-3.325-3.995
					C1921.984,1485.455,1940.682,1484.925,1949.766,1484.114z"/>
				
					<linearGradient id="SVGID_00000165227544960830708440000011986680871118613157_" gradientUnits="userSpaceOnUse" x1="-227.7768" y1="1408.7518" x2="-237.2732" y2="1491.6298" gradientTransform="matrix(-1 0 0 1 1708.9733 0)">
					<stop  offset="0" style="stop-color:#FF928E"/>
					<stop  offset="1" style="stop-color:#FEB3B1"/>
				</linearGradient>
				<path style="fill:url(#SVGID_00000165227544960830708440000011986680871118613157_);" d="M1949.807,1430.363l-4.664,22.453
					c-0.342,1.645-1.606,2.877-3.137,3.021c-1.874,0.176-4.543,0.279-7.226-0.115c-2.406-0.354-4.082-2.799-3.655-5.423
					l3.242-19.936H1949.807z"/>
				
					<linearGradient id="SVGID_00000017513279464551149130000006747005149629824667_" gradientUnits="userSpaceOnUse" x1="-143.0473" y1="1334.5649" x2="-163.0473" y2="1106.5638" gradientTransform="matrix(-1 0 0 1 1708.9733 0)">
					<stop  offset="0" style="stop-color:#4042E2"/>
					<stop  offset="1" style="stop-color:#4F52FF"/>
				</linearGradient>
				<path style="fill:url(#SVGID_00000017513279464551149130000006747005149629824667_);" d="M1853.168,1483.888
					c12.162-0.341,18.453-1.773,21.705-3.102c0.008,1.209,0.001,2.44-0.038,3.715c-0.042,1.362-1.051,2.45-2.292,2.442l-66.78-0.431
					c-2.131-0.014-3.377-2.486-2.453-4.44C1812.066,1482.796,1834.367,1484.414,1853.168,1483.888z"/>
				
					<linearGradient id="SVGID_00000042005491414182237550000008477740772936351380_" gradientUnits="userSpaceOnUse" x1="-165.9" y1="1466.672" x2="-94.3369" y2="1466.672" gradientTransform="matrix(-1 0 0 1 1708.9733 0)">
					<stop  offset="0" style="stop-color:#09005D"/>
					<stop  offset="1" style="stop-color:#1A0F91"/>
				</linearGradient>
				<path style="fill:url(#SVGID_00000042005491414182237550000008477740772936351380_);" d="M1803.31,1482.073
					c0.08-0.17,0.149-0.344,0.264-0.504c5.897-8.241,20.918-24.65,50.6-31.767l14.239-0.449c0,0,6.34,11.02,6.46,31.434
					c-3.252,1.329-9.543,2.761-21.705,3.102C1834.367,1484.414,1812.066,1482.796,1803.31,1482.073z"/>
				
					<linearGradient id="SVGID_00000093165799387476204450000013034241776057619594_" gradientUnits="userSpaceOnUse" x1="-150.4223" y1="1417.6157" x2="-159.9186" y2="1500.4926" gradientTransform="matrix(-1 0 0 1 1708.9733 0)">
					<stop  offset="0" style="stop-color:#FF928E"/>
					<stop  offset="1" style="stop-color:#FEB3B1"/>
				</linearGradient>
				<path style="fill:url(#SVGID_00000093165799387476204450000013034241776057619594_);" d="M1871.054,1427.773
					c-0.158,1.061-2.11,17.192-2.866,23.447c-0.179,1.486-1.256,2.637-2.613,2.798c-2.425,0.29-6.348,0.553-9.781-0.15
					c-1.852-0.38-3.192-2.159-3.192-4.227v-25.321L1871.054,1427.773z"/>
				
					<linearGradient id="SVGID_00000079458151498448596430000002168392657037294480_" gradientUnits="userSpaceOnUse" x1="2027.2134" y1="1195.6539" x2="1933.2134" y2="1270.6539">
					<stop  offset="0" style="stop-color:#09005D"/>
					<stop  offset="1" style="stop-color:#1A0F91"/>
				</linearGradient>
				<path style="fill:url(#SVGID_00000079458151498448596430000002168392657037294480_);" d="M1882.477,1133.386
					c0,0-34.344,130.517-33.723,294.761c0.011,2.994,2.114,5.579,5.044,6.196c4.318,0.91,10.666,1.99,15.92,1.842
					c2.805-0.078,5.15-2.159,5.622-4.925c4.815-28.24,27.805-190.551,43.551-216.379c0,0,15.005,144.914,11.693,218.424
					c-0.082,1.828,1.256,3.413,3.074,3.624c2.757,0.319,7.168,0.561,12.781-0.036c2.131-0.226,3.85-1.837,4.154-3.958
					c3.43-23.9,23.172-166.162,22.333-268.642c-0.048-5.779-15.283-30.907-15.283-30.907H1882.477z"/>
				
					<linearGradient id="SVGID_00000016057150855972322770000016082444443612941731_" gradientUnits="userSpaceOnUse" x1="1955.7024" y1="1086.5834" x2="2145.7021" y2="1344.5831">
					<stop  offset="0" style="stop-color:#FE7062"/>
					<stop  offset="1" style="stop-color:#FF928E"/>
				</linearGradient>
				<path style="fill:url(#SVGID_00000016057150855972322770000016082444443612941731_);" d="M1995.475,948.041
					c-42.72-30.828-107.047-15.224-131.93-12.09c-8.159,1.028-15.621,5.05-20.997,11.273
					c-21.322,24.675-68.11,92.231-13.039,160.303c7.047-3.912,17.061-10.185,23.863-17.445c-6.093-17.175-6.591-39.124,6.177-66.038
					c0.436,2.134,0.976,4.245,1.631,6.324c17.599,55.755,18.538,102.151,18.499,112.844c-0.006,1.452,0.866,2.759,2.214,3.3
					c23.162,9.281,67.748,3.757,82.716,1.527c2.744-0.409,4.59-2.964,4.211-5.713c-7.345-53.217,30.353-140.761,40.31-162.688
					C2009.845,978.06,2001.112,960.91,1995.475,948.041z"/>
				
					<linearGradient id="SVGID_00000166659208254576615260000013935169280437252761_" gradientUnits="userSpaceOnUse" x1="-268.7465" y1="936.0768" x2="-304.909" y2="1092.3503" gradientTransform="matrix(-0.9994 0.0356 0.0356 0.9994 1614.9282 -45.2169)">
					<stop  offset="0" style="stop-color:#FF928E"/>
					<stop  offset="1" style="stop-color:#FEB3B1"/>
				</linearGradient>
				<path style="fill:url(#SVGID_00000166659208254576615260000013935169280437252761_);" d="M1943.631,892.194l5.269,39.315
					c0.484,3.611-1.904,6.986-5.478,7.693c-7.404,1.464-20.182,2.745-31.96-2.159c-3.646-1.518-5.611-5.503-4.555-9.309l9.96-35.868
					L1943.631,892.194z"/>
				<g>
					
						<linearGradient id="SVGID_00000164508107930137255660000008720775906049809063_" gradientUnits="userSpaceOnUse" x1="1977.9203" y1="848.2141" x2="1916.9204" y2="872.2141">
						<stop  offset="0" style="stop-color:#FF928E"/>
						<stop  offset="1" style="stop-color:#FEB3B1"/>
					</linearGradient>
					<path style="fill:url(#SVGID_00000164508107930137255660000008720775906049809063_);" d="M1912.026,841.306
						c-0.596,0.603-24.242,51.443-24.242,51.443l29.316,12.885l29.571-44.857C1946.671,860.777,1922.011,831.212,1912.026,841.306z"
						/>
					
						<linearGradient id="SVGID_00000085234042211245374660000008550173104081545395_" gradientUnits="userSpaceOnUse" x1="-1806.1255" y1="-1319.0094" x2="-1729.2834" y2="-1319.0094" gradientTransform="matrix(-0.7109 -0.7032 -0.7032 0.7109 -270.208 567.1404)">
						<stop  offset="0" style="stop-color:#09005D"/>
						<stop  offset="1" style="stop-color:#1A0F91"/>
					</linearGradient>
					<path style="fill:url(#SVGID_00000085234042211245374660000008550173104081545395_);" d="M1933.963,862.444
						c0.562,1.312,0.488,2.801-0.202,4.05l-13.519,24.473c-0.205,0.372-0.453,0.709-0.753,1.009
						c-1.654,1.654-7.344,6.495-12.094,0.35c-4.049-5.238-7.843-9.996-11.793-11.873c-2.306-1.096-5.06-0.057-6.129,2.263
						c-2.2,4.778-6.446,14.51-9.005,23.686c-0.641,2.299,0.62,4.7,2.863,5.516c5.92,2.156,17.606,6.021,27.891,7.068
						c1.689,0.172,3.329-0.597,4.28-2.003c4.188-6.189,15.998-23.49,20.083-27.861c3.795-4.06,11.111-2.841,14.417-2.017
						c1.255,0.313,2.572,0.094,3.655-0.613c3.249-2.118,8.866-7.305,3.264-15.549c-1.393-2.049-0.82-4.866,1.2-6.3
						c3.62-2.571,7.48-7.292,3.383-14.568c-4.147-7.366-11.1-7.792-15.798-7.047c-2.079,0.33-4.238-0.69-5.108-2.606
						c-0.387-0.853-1.118-1.565-2.439-1.784c-2.491-0.414-4.195-2.617-3.798-5.111c0.681-4.276-0.142-9.77-7.056-13.256
						c-12.678-6.394-23.174,5.135-25.608,14.638c-2.434,9.503,11.706,15.653,20.491,16.45
						C1928.642,851.944,1932.415,858.83,1933.963,862.444z"/>
					
						<linearGradient id="SVGID_00000110462184484659876150000000471829566954998166_" gradientUnits="userSpaceOnUse" x1="-1851.2128" y1="-1272.0529" x2="-1799.616" y2="-1324.9899" gradientTransform="matrix(-0.7109 -0.7032 -0.7032 0.7109 -270.208 567.1404)">
						<stop  offset="0" style="stop-color:#FF928E"/>
						<stop  offset="1" style="stop-color:#FEB3B1"/>
					</linearGradient>
					<path style="fill:url(#SVGID_00000110462184484659876150000000471829566954998166_);" d="M1930.5,898.114
						c0,0,4.953-16.376,12.052-16.034c7.099,0.341,12.921,7.194,4.432,15.433C1936.425,907.761,1930.5,898.114,1930.5,898.114z"/>
				</g>
				
					<linearGradient id="SVGID_00000000907362902356123140000017111378552887576203_" gradientUnits="userSpaceOnUse" x1="2813.2161" y1="882.5236" x2="2738.1565" y2="1020.4238" gradientTransform="matrix(1 0 0 1 -898.6577 0)">
					<stop  offset="0" style="stop-color:#E1473D"/>
					<stop  offset="1" style="stop-color:#E9605A"/>
				</linearGradient>
				<path style="fill:url(#SVGID_00000000907362902356123140000017111378552887576203_);" d="M1857.213,1019.874
					c-9.336-25.548-5.949-56.398-5.914-56.707l2.572,0.294c-0.034,0.303-3.349,30.561,5.774,55.524L1857.213,1019.874z"/>
				<g>
					
						<linearGradient id="SVGID_00000011747714023090756560000007896205755202390661_" gradientUnits="userSpaceOnUse" x1="-1072.7465" y1="1046.308" x2="-1099.7452" y2="1149.8029" gradientTransform="matrix(-1 0 0 1 941.2047 0)">
						<stop  offset="0" style="stop-color:#FF928E"/>
						<stop  offset="1" style="stop-color:#FEB3B1"/>
					</linearGradient>
					<path style="fill:url(#SVGID_00000011747714023090756560000007896205755202390661_);" d="M2044.19,1100.781
						c0.611,17.781,0.354,37.471-1.053,59.285l-14.617,1.827c0,0-6.036-26.558-15.464-57.579
						C2027.546,1105.811,2037.924,1103.268,2044.19,1100.781z"/>
					
						<linearGradient id="SVGID_00000131347877079576352470000011521386668656057732_" gradientUnits="userSpaceOnUse" x1="2016.8015" y1="1041.5881" x2="2206.802" y2="1299.5886">
						<stop  offset="0" style="stop-color:#FE7062"/>
						<stop  offset="1" style="stop-color:#FF928E"/>
					</linearGradient>
					<path style="fill:url(#SVGID_00000131347877079576352470000011521386668656057732_);" d="M1971.878,1013.896
						c0,0,3.654-51.16,23.752-65.777c0,0,44.414,31.942,48.559,152.661c-6.266,2.486-16.644,5.03-31.135,3.533
						C2002.393,1069.232,1987.393,1028.442,1971.878,1013.896z"/>
				</g>
				
					<linearGradient id="SVGID_00000076596662419289495270000012830670265260973464_" gradientUnits="userSpaceOnUse" x1="-1063.6016" y1="1048.6938" x2="-1090.6003" y2="1152.1888" gradientTransform="matrix(-1 0 0 1 941.2047 0)">
					<stop  offset="0" style="stop-color:#FF928E"/>
					<stop  offset="1" style="stop-color:#FEB3B1"/>
				</linearGradient>
				<path style="fill:url(#SVGID_00000076596662419289495270000012830670265260973464_);" d="M2034.001,1154.585
					c0,0-9.136,3.655-10.963,18.271c-1.827,14.617,9.136,25.58,18.271,23.753c9.136-1.827,18.929-29.234,2.156-42.024
					C2026.692,1141.795,2034.001,1154.585,2034.001,1154.585z"/>
			</g>
			<g>
				
					<linearGradient id="SVGID_00000005989577627894348560000017967841267003297712_" gradientUnits="userSpaceOnUse" x1="2180.8567" y1="940.1944" x2="2236.8564" y2="1228.1934">
					<stop  offset="0" style="stop-color:#4042E2"/>
					<stop  offset="1" style="stop-color:#4F52FF"/>
				</linearGradient>
				<path style="fill:url(#SVGID_00000005989577627894348560000017967841267003297712_);" d="M2147.555,870.454
					c0,0-2.779,5.559,15.318,14.245c10.091,4.844,29.721,12.003,32.312,32.914c1.337,10.796,9.326,19.443,20.079,21.091
					c26.783,4.104,68.057,18.012,74.66,64.512c5.041,35.493-13.053,48.951-32.042,53.609c-13.947,3.422-23.215,16.987-20.394,31.067
					c2.705,13.505-1.329,29.118-24.727,41.464c-52.431,27.666-104.791-65.543-104.791-65.543l-10.731-162.748L2147.555,870.454z"/>
				<path style="fill:#BDD0FB;" d="M2251.37,1036.026c-0.613,0-1.157-0.21-1.52-0.716c-0.083-0.117-0.057-0.279,0.06-0.362
					c0.115-0.083,0.278-0.058,0.362,0.06c0.725,1.009,2.42,0.298,3.309-0.281c12.094-7.88,18.542-24.15,15.68-39.565
					c-1.715-9.233-6.289-17.192-12.879-22.412c-4.687-3.715-10.276-5.989-15.597-8.001c-9.02-3.409-18.315-6.414-27.629-8.931
					c-0.764-0.207-1.529-0.41-2.295-0.614c-5.477-1.457-11.142-2.965-16.289-5.541c-6.644-3.326-11.492-8.176-13.65-13.656
					c-1.339-3.399-1.721-7.132-2.091-10.742c-0.444-4.335-0.903-8.818-3.05-12.611c-0.07-0.125-0.026-0.283,0.098-0.354
					c0.123-0.07,0.283-0.027,0.354,0.098c2.201,3.887,2.665,8.425,3.114,12.814c0.366,3.575,0.745,7.272,2.057,10.604
					c2.112,5.361,6.871,10.114,13.401,13.383c5.099,2.553,10.737,4.052,16.19,5.504c0.766,0.205,1.532,0.408,2.297,0.615
					c9.329,2.521,18.641,5.532,27.676,8.947c5.36,2.025,10.99,4.317,15.736,8.078c6.688,5.298,11.33,13.368,13.067,22.724
					c2.898,15.616-3.643,32.104-15.907,40.094C2253.076,1035.675,2252.165,1036.026,2251.37,1036.026z"/>
				<path style="fill:#BDD0FB;" d="M2254.514,1021.34c-0.05,0-0.1-0.014-0.144-0.044c-0.12-0.08-0.151-0.241-0.072-0.36
					c4.672-6.985,7.104-14.307,7.034-21.174c-0.082-8.004-3.789-15.44-9.675-19.407c-0.119-0.08-0.15-0.241-0.07-0.36
					c0.079-0.118,0.239-0.151,0.36-0.07c6.024,4.061,9.82,11.66,9.904,19.831c0.071,6.972-2.392,14.395-7.121,21.467
					C2254.679,1021.299,2254.597,1021.34,2254.514,1021.34z"/>
				
					<linearGradient id="SVGID_00000137118457112983961600000015884496547521002394_" gradientUnits="userSpaceOnUse" x1="-1077.2808" y1="622.3597" x2="-1207.7809" y2="1900.1655" gradientTransform="matrix(-1 0 0 1 941.2047 0)">
					<stop  offset="0" style="stop-color:#FF928E"/>
					<stop  offset="1" style="stop-color:#FEB3B1"/>
				</linearGradient>
				<path style="fill:url(#SVGID_00000137118457112983961600000015884496547521002394_);" d="M2076.025,1002.934
					c0,0-29.234,84.048-38.37,158.96l9.136,9.136c0,0,29.234-95.011,51.159-122.417L2076.025,1002.934z"/>
				
					<linearGradient id="SVGID_00000022525761523496629840000011501864763275608250_" gradientUnits="userSpaceOnUse" x1="-1056.1527" y1="1291" x2="-1056.1527" y2="1459.9999" gradientTransform="matrix(1 0 0 1 3342.6379 0)">
					<stop  offset="0" style="stop-color:#09005D"/>
					<stop  offset="1" style="stop-color:#1A0F91"/>
				</linearGradient>
				<path style="fill:url(#SVGID_00000022525761523496629840000011501864763275608250_);" d="M2269.104,1465.538l1.982,16.293
					c0.376,3.091,2.81,5.535,5.903,5.889c5.223,0.597,13.605,1.208,21.806,0.341c3.6-0.381,5.937-4.026,4.84-7.475
					c-1.999-6.29-5.656-15.732-10.93-21.288h-18.075C2271.29,1459.297,2268.701,1462.22,2269.104,1465.538z"/>
				
					<linearGradient id="SVGID_00000069388238892677303050000002581002641908061881_" gradientUnits="userSpaceOnUse" x1="-1220.8136" y1="1611.3043" x2="-1170.6691" y2="1025.2393" gradientTransform="matrix(1 0 0 1 3342.6379 0)">
					<stop  offset="0" style="stop-color:#FF928E"/>
					<stop  offset="1" style="stop-color:#FEB3B1"/>
				</linearGradient>
				<path style="fill:url(#SVGID_00000069388238892677303050000002581002641908061881_);" d="M2127.54,1274.672l-3.051,17.945
					c0,0,10.216,103.48,12.033,144.872c0.285,6.49-1.394,12.902-4.8,18.434l-17.764,28.847l45.147-26.641l0.899-5.509l-7.391-10.162
					l9.681-115.923c0.568-6.81-0.837-13.64-4.048-19.672l-9.338-17.543L2127.54,1274.672z"/>
				
					<linearGradient id="SVGID_00000155144911888089358430000017788606891247229343_" gradientUnits="userSpaceOnUse" x1="-1207.2714" y1="1291.0001" x2="-1207.2714" y2="1460.0002" gradientTransform="matrix(1 0 0 1 3342.6379 0)">
					<stop  offset="0" style="stop-color:#09005D"/>
					<stop  offset="1" style="stop-color:#1A0F91"/>
				</linearGradient>
				<path style="fill:url(#SVGID_00000155144911888089358430000017788606891247229343_);" d="M2110.985,1488.95h14.407
					c2.697,0,5.24-1.238,6.885-3.375c4.491-5.836,13.797-17.222,18.247-17.519c5.99-0.4,5.224,20.895,5.224,20.895h3.358
					l4.253-26.461c1.07-6.658-2.241-13.254-8.219-16.373l0,0c0,0-1.369,10.126-8.794,14.606c-7.424,4.479-30.213,20.52-30.213,20.52
					s-2.791-0.398-5.855,0.156C2105.731,1482.218,2106.366,1488.95,2110.985,1488.95z"/>
				
					<linearGradient id="SVGID_00000163057666168822417280000016295909526190765975_" gradientUnits="userSpaceOnUse" x1="-1119.9448" y1="1620.0245" x2="-1069.7871" y2="1033.8055" gradientTransform="matrix(1 0 0 1 3342.6379 0)">
					<stop  offset="0" style="stop-color:#FF928E"/>
					<stop  offset="1" style="stop-color:#FEB3B1"/>
				</linearGradient>
				<path style="fill:url(#SVGID_00000163057666168822417280000016295909526190765975_);" d="M2189.376,1283.195
					c0,0,59.849,113.528,69.363,139.448c9.513,25.92,12.846,47.543,12.974,49.591c0.2,3.199,4.179,6.268,15.149,6.268
					c5.661,0,8.434-2.269,9.792-4.466c1.158-1.874,1.218-4.219,0.242-6.194c-3.461-7.006-14.448-29.396-18.518-39.552
					c-4.858-12.125-15.308-67.073-21.039-86.177c-5.731-19.105-12.209-39.829-37.167-58.918
					C2220.172,1283.195,2203.04,1266.415,2189.376,1283.195z"/>
				
					<linearGradient id="SVGID_00000169523866269715601250000001867823443457243311_" gradientUnits="userSpaceOnUse" x1="2118.6597" y1="1028.301" x2="2271.6594" y2="1201.301">
					<stop  offset="0" style="stop-color:#FE7062"/>
					<stop  offset="1" style="stop-color:#FF928E"/>
				</linearGradient>
				<path style="fill:url(#SVGID_00000169523866269715601250000001867823443457243311_);" d="M2151.569,1097.175
					c-15.438-65.418,23.671-102.418,23.671-102.418c-24.678-23.688-69.64-34.467-69.64-34.467s-42.904,31.367-37.814,55.918
					c2.983,14.389,30.157,86.191,30.157,86.191S2123.071,1114.29,2151.569,1097.175z"/>
				
					<linearGradient id="SVGID_00000088842734467885506980000008626033414018086833_" gradientUnits="userSpaceOnUse" x1="2062.2085" y1="1386.1312" x2="2158.2185" y2="1197.1117">
					<stop  offset="0" style="stop-color:#09005D"/>
					<stop  offset="1" style="stop-color:#1A0F91"/>
				</linearGradient>
				<path style="fill:url(#SVGID_00000088842734467885506980000008626033414018086833_);" d="M2185.798,1129.561
					c-6.283-18.927-34.229-32.386-34.229-32.386c-28.498,17.115-53.625,5.224-53.625,5.224s-5.635,21.539-1.746,41.557
					s28.291,148.662,28.291,148.662c38.449,7.79,97.583-7.838,97.583-7.838C2197.582,1241.298,2192.081,1148.489,2185.798,1129.561z
					"/>
				
					<linearGradient id="SVGID_00000054251302290553939650000018298082618144067495_" gradientUnits="userSpaceOnUse" x1="2120.3223" y1="887.7139" x2="2137.3223" y2="1025.7142">
					<stop  offset="0" style="stop-color:#FF928E"/>
					<stop  offset="1" style="stop-color:#FEB3B1"/>
				</linearGradient>
				<path style="fill:url(#SVGID_00000054251302290553939650000018298082618144067495_);" d="M2133.649,917.06l12.552,56.379
					c1.201,4.966-3.326,4.153-8.347,3.207c-8.222-1.55-18.82-4.743-22.362-11.141c-0.36-0.651-0.541-1.387-0.642-2.124
					l-5.393-39.095c-0.428-3.102,1.249-6.112,4.111-7.381l10.406-4.614C2127.981,910.514,2132.618,912.8,2133.649,917.06z"/>
				<g>
					
						<linearGradient id="SVGID_00000089536726850473306430000012446664162177617293_" gradientUnits="userSpaceOnUse" x1="-1376.9556" y1="813.8475" x2="-1389.9556" y2="925.8474" gradientTransform="matrix(0.9809 -0.1943 0.1943 0.9809 3301.873 -238.991)">
						<stop  offset="0" style="stop-color:#FF928E"/>
						<stop  offset="1" style="stop-color:#FEB3B1"/>
					</linearGradient>
					<path style="fill:url(#SVGID_00000089536726850473306430000012446664162177617293_);" d="M2109.607,865.664
						c0,0-13.363,9.046-19.104,32.081c-5.742,23.036,3.59,31.298,13.154,30.792c9.565-0.507,23.434-3.464,35.45-19.99
						C2151.123,892.021,2127.118,854.611,2109.607,865.664z"/>
					
						<linearGradient id="SVGID_00000069366351293226713260000016805250083402094218_" gradientUnits="userSpaceOnUse" x1="2139.5044" y1="948.2354" x2="2195.5042" y2="1236.2356">
						<stop  offset="0" style="stop-color:#4042E2"/>
						<stop  offset="1" style="stop-color:#4F52FF"/>
					</linearGradient>
					<path style="fill:url(#SVGID_00000069366351293226713260000016805250083402094218_);" d="M2126.99,899.255
						c0,0,4.896-33.008-22.509-27.959l-5.541,5.769c0,0-13.414-15.107,1.43-26.525c14.844-11.419,35.443-8.495,46.84,12.294
						c11.397,20.789,15.533,35.397,5.98,48.315c-9.552,12.917-16.738,1.839-16.738,1.839s4.381-11.181,0.746-15.979
						c-3.635-4.797-8.325,2.79-8.325,2.79L2126.99,899.255z"/>
					
						<linearGradient id="SVGID_00000051383805809755275810000008716222786482163110_" gradientUnits="userSpaceOnUse" x1="-1354.4222" y1="816.4628" x2="-1367.4222" y2="928.4628" gradientTransform="matrix(0.9809 -0.1943 0.1943 0.9809 3301.873 -238.991)">
						<stop  offset="0" style="stop-color:#FF928E"/>
						<stop  offset="1" style="stop-color:#FEB3B1"/>
					</linearGradient>
					<path style="fill:url(#SVGID_00000051383805809755275810000008716222786482163110_);" d="M2130.735,902.082
						c0,0,2.417-16.982,11.09-12.128c8.673,4.855-3.125,15.864-7.857,19.61L2130.735,902.082z"/>
				</g>
				
					<linearGradient id="SVGID_00000045594905543693541740000006929481469787948941_" gradientUnits="userSpaceOnUse" x1="2302.2229" y1="836.0461" x2="2260.2231" y2="908.0461">
					<stop  offset="0" style="stop-color:#FF928E"/>
					<stop  offset="1" style="stop-color:#FEB3B1"/>
				</linearGradient>
				<path style="fill:url(#SVGID_00000045594905543693541740000006929481469787948941_);" d="M2164.931,996.077
					c4.571-2.475,10.269-1.704,14.242,1.649c7.909,6.677,26.071,26.636,27.967,70.253c2.432,55.941-82.694,41.347-82.694,41.347
					l-4.865-12.161c0,0,60.805-2.432,60.805-26.754c0-17.13-17.656-37.04-25.503-45.043c-3.005-3.065-4.326-7.499-3.222-11.647
					C2153.54,1006.666,2158.826,999.382,2164.931,996.077z"/>
				
					<linearGradient id="SVGID_00000034075992164985591080000010761314344293231235_" gradientUnits="userSpaceOnUse" x1="2278.0056" y1="821.9195" x2="2236.0059" y2="893.9192">
					<stop  offset="0" style="stop-color:#FF928E"/>
					<stop  offset="1" style="stop-color:#FEB3B1"/>
				</linearGradient>
				<path style="fill:url(#SVGID_00000034075992164985591080000010761314344293231235_);" d="M2130.735,1097.175
					c0,0-8.722-4.874-16.018-7.306c-7.297-2.432-9.729,0-9.729,0s7.297,2.432,9.729,4.865c2.432,2.432-11.643,2.451-16.767,2.441
					c-5.123-0.009-6.027,11.953-0.711,15.7c5.316,3.748,19.909,11.045,34.503-3.549L2130.735,1097.175z"/>
			</g>
		</g>
		
			<linearGradient id="SVGID_00000034792645037822486300000005606459473387014790_" gradientUnits="userSpaceOnUse" x1="1693.9865" y1="547.1483" x2="2149.9863" y2="-164.8518">
			<stop  offset="0" style="stop-color:#FE7062"/>
			<stop  offset="1" style="stop-color:#FF928E"/>
		</linearGradient>
		<path style="fill:url(#SVGID_00000034792645037822486300000005606459473387014790_);" d="M1403.378,875.83
			c0.048,4.628-5.317,7.315-9.079,4.619c-11.144-7.985-21.583-27.336,4.76-73.438c41.508-72.639,16.603-97.544-53.96-128.674
			c-70.563-31.131-361.119-101.694-226.218-352.817s269.801-60.186,419.23-58.111c149.428,2.075,244.897-122.448,475.266-93.393
			c230.369,29.056,410.928,112.071,383.948,327.913s-122.448,174.333-249.047,236.595c-126.599,62.262-166.032,157.73-261.5,45.659
			c-95.468-112.071-147.992-174.243-209.615-87.167c-95.468,134.901-145.278,12.452-219.992,93.393
			C1412.031,839.31,1403.254,863.969,1403.378,875.83z"/>
		<g>
			<path style="fill:#7D97F4;" d="M2356.011,396.71c0,161.566-145.683,290.906-307.249,290.906s-292.54-153.855-292.54-315.421
				s130.975-269.66,292.54-269.66S2356.011,235.144,2356.011,396.71z"/>
			<path style="fill:#BDD0FB;" d="M2340.932,398.412c0,154.422-139.242,278.044-293.664,278.044s-279.606-147.053-279.606-301.475
				s125.184-257.737,279.606-257.737S2340.932,243.99,2340.932,398.412z"/>
			
				<ellipse transform="matrix(0.7071 -0.7071 0.7071 0.7071 316.9265 1578.1598)" style="fill:#7D97F4;" cx="2063.471" cy="406.516" rx="142.184" ry="142.184"/>
		</g>
		<g>
			<path style="fill:#BDD0FB;" d="M1592.018,312.03c-29.122,0-53.783,15.145-62.208,36.058l-0.708,0.304
				c-1.313,0.625-2.783,1.059-4.196,1.598c-5.771,1.989-12.099,3.322-18.632,4.233c-13.141,1.594-27.151,1.184-41.193-0.825
				c-1.769-0.233-3.457-0.436-5.509-0.764c-1.969-0.287-3.908-0.626-5.902-0.815c-1.984-0.213-3.941-0.469-5.946-0.575
				c-1.99-0.145-3.972-0.286-5.981-0.306c-7.983-0.223-16.069,0.346-23.917,2.201c-3.916,0.933-7.764,2.154-11.446,3.752
				c-3.678,1.607-7.183,3.583-10.389,5.92c-6.368,4.718-11.679,10.752-14.51,17.946c-0.103,0.262-0.013,0.57,0.231,0.731
				c0.281,0.185,0.658,0.108,0.844-0.173l0.039-0.059c1.967-2.983,4.62-5.573,7.405-7.76c2.827-2.176,5.896-3.956,9.091-5.348
				c6.413-2.78,13.314-3.928,20.163-3.977c6.862-0.061,13.711,0.99,20.407,2.707c1.675,0.392,3.341,0.901,4.998,1.406
				c1.658,0.463,3.305,1.076,4.944,1.635c1.641,0.533,3.266,1.219,4.888,1.841c1.531,0.614,3.438,1.305,5.261,1.978
				c14.595,5.547,30.105,9.696,46.619,11.415c8.277,0.726,16.78,0.922,25.553,0.026c0.163-0.02,0.326-0.038,0.489-0.057
				c10.208,18.079,33.048,30.679,59.606,30.679c36.072,0,65.314-23.23,65.314-51.885
				C1657.332,335.259,1628.09,312.03,1592.018,312.03z"/>
			
				<linearGradient id="SVGID_00000166671607474386447990000008890067327267292328_" gradientUnits="userSpaceOnUse" x1="1540.9261" y1="335.8856" x2="1617.4717" y2="335.8856">
				<stop  offset="0" style="stop-color:#DAE3FE"/>
				<stop  offset="1" style="stop-color:#E9EFFD"/>
			</linearGradient>
			<path style="fill:url(#SVGID_00000166671607474386447990000008890067327267292328_);" d="M1541.964,351.523
				c-0.122,0-0.245-0.021-0.365-0.067c-0.536-0.202-0.808-0.799-0.607-1.336c0.15-0.398,15.655-39.763,75.65-27.51
				c0.561,0.115,0.923,0.663,0.809,1.224c-0.114,0.561-0.664,0.922-1.224,0.809c-58.183-11.875-73.146,25.826-73.291,26.208
				C1542.779,351.267,1542.384,351.523,1541.964,351.523z"/>
		</g>
		<g>
			<path style="fill:#BDD0FB;" d="M1451.056,418.491c-34.602,0-63.902,17.994-73.911,42.842l-0.841,0.361
				c-1.559,0.743-3.307,1.258-4.985,1.898c-6.857,2.363-14.376,3.947-22.138,5.03c-15.614,1.894-32.259,1.407-48.943-0.981
				c-2.101-0.276-4.107-0.518-6.546-0.907c-2.34-0.341-4.643-0.744-7.013-0.969c-2.357-0.253-4.683-0.557-7.065-0.683
				c-2.364-0.172-4.719-0.339-7.106-0.363c-9.485-0.265-19.092,0.412-28.417,2.615c-4.653,1.109-9.224,2.559-13.599,4.458
				c-4.37,1.909-8.534,4.257-12.344,7.034c-7.566,5.605-13.875,12.774-17.239,21.322c-0.123,0.311-0.016,0.677,0.275,0.869
				c0.333,0.22,0.782,0.128,1.002-0.206l0.046-0.07c2.338-3.544,5.489-6.621,8.799-9.22c3.359-2.585,7.005-4.7,10.801-6.354
				c7.62-3.303,15.819-4.668,23.956-4.725c8.153-0.073,16.29,1.177,24.246,3.217c1.989,0.466,3.969,1.07,5.938,1.67
				c1.97,0.55,3.926,1.279,5.875,1.942c1.95,0.633,3.881,1.449,5.807,2.187c1.819,0.729,4.085,1.551,6.251,2.351
				c17.341,6.591,35.769,11.521,55.389,13.562c9.835,0.863,19.937,1.096,30.36,0.03c0.194-0.024,0.387-0.045,0.581-0.068
				c12.129,21.48,39.265,36.451,70.82,36.451c42.858,0,77.601-27.6,77.601-61.646
				C1528.657,446.091,1493.914,418.491,1451.056,418.491z"/>
			
				<linearGradient id="SVGID_00000075147133278575223850000010947783602141921978_" gradientUnits="userSpaceOnUse" x1="1390.5481" y1="446.8358" x2="1481.1035" y2="446.8358">
				<stop  offset="0" style="stop-color:#DAE3FE"/>
				<stop  offset="1" style="stop-color:#E9EFFD"/>
			</linearGradient>
			<path style="fill:url(#SVGID_00000075147133278575223850000010947783602141921978_);" d="M1391.586,465.219
				c-0.122,0-0.244-0.021-0.365-0.066c-0.536-0.202-0.808-0.799-0.607-1.337c0.176-0.472,18.538-47.081,89.659-32.563
				c0.561,0.115,0.923,0.663,0.809,1.224s-0.663,0.926-1.224,0.809c-69.405-14.156-87.129,30.804-87.3,31.26
				C1392.402,464.963,1392.006,465.219,1391.586,465.219z"/>
		</g>
		<g>
			<path style="fill:#BDD0FB;" d="M1633.637,494.203c-27.823,8.602-46.909,30.356-48.781,52.825l-0.586,0.499
				c-1.069,0.985-2.346,1.834-3.537,2.766c-4.926,3.605-10.578,6.748-16.55,9.548c-12.084,5.405-25.589,9.152-39.599,11.38
				c-1.759,0.3-3.432,0.605-5.489,0.898c-1.966,0.308-3.919,0.557-5.88,0.965c-1.958,0.383-3.904,0.716-5.851,1.207
				c-1.944,0.449-3.879,0.9-5.805,1.475c-7.693,2.145-15.25,5.078-22.2,9.167c-3.466,2.049-6.781,4.352-9.827,6.966
				c-3.039,2.622-5.804,5.545-8.177,8.725c-4.691,6.388-7.981,13.722-8.561,21.431c-0.021,0.281,0.156,0.549,0.437,0.63
				c0.323,0.094,0.661-0.092,0.755-0.415l0.02-0.068c0.998-3.431,2.768-6.689,4.782-9.601c2.059-2.914,4.464-5.52,7.106-7.795
				c5.306-4.551,11.56-7.686,18.088-9.756c6.538-2.085,13.392-3.104,20.296-3.441c1.715-0.12,3.457-0.126,5.19-0.134
				c1.721-0.048,3.475,0.052,5.206,0.101c1.726,0.024,3.481,0.2,5.214,0.315c1.644,0.134,3.67,0.231,5.611,0.336
				c15.582,0.989,31.626,0.371,47.91-2.865c8.123-1.751,16.304-4.076,24.42-7.524c0.15-0.068,0.3-0.132,0.45-0.199
				c15.094,14.257,40.636,19.548,66.009,11.703c34.462-10.656,55.537-41.486,47.073-68.863
				C1702.898,497.103,1668.099,483.547,1633.637,494.203z"/>
			
				<linearGradient id="SVGID_00000003097860884737098460000017611946232414468772_" gradientUnits="userSpaceOnUse" x1="1596.1383" y1="521.8995" x2="1661.4271" y2="521.8995">
				<stop  offset="0" style="stop-color:#DAE3FE"/>
				<stop  offset="1" style="stop-color:#E9EFFD"/>
			</linearGradient>
			<path style="fill:url(#SVGID_00000003097860884737098460000017611946232414468772_);" d="M1597.177,546.766
				c-0.02,0-0.042-0.001-0.062-0.002c-0.573-0.033-1.009-0.525-0.975-1.096c0.025-0.426,3.213-42.604,64.147-48.629
				c0.591-0.054,1.079,0.361,1.135,0.93c0.057,0.57-0.36,1.078-0.93,1.135c-59.191,5.852-62.256,46.278-62.28,46.685
				C1598.179,546.34,1597.722,546.766,1597.177,546.766z"/>
		</g>
		<g>
			<path style="fill:#FFFFFF;" d="M1587.22,1099.79c0,0,1.184,0.436,2.422,0.655c1.23,0.24,2.479,0.248,2.479,0.248
				c0.34,0.002,0.615,0.28,0.612,0.621c-0.002,0.34-0.28,0.615-0.621,0.612c-0.007,0-0.014,0-0.021,0l-0.014-0.001
				c0,0-1.353-0.06-2.664-0.367c-1.313-0.282-2.552-0.792-2.552-0.792l-0.019-0.008c-0.265-0.109-0.392-0.413-0.283-0.678
				C1586.667,1099.821,1586.96,1099.695,1587.22,1099.79z"/>
			<path style="fill:#FFFFFF;" d="M1601.537,1097.778c0,0,0.557-0.356,1.29-0.916c0.753-0.568,1.706-1.394,2.587-2.295
				c1.786-1.787,3.191-3.899,3.191-3.899c0.301-0.452,0.912-0.575,1.364-0.274c0.453,0.301,0.575,0.912,0.274,1.364
				c-0.004,0.005-0.007,0.01-0.011,0.016l-0.017,0.024c0,0-1.552,2.216-3.53,4.062c-0.978,0.929-2.033,1.776-2.864,2.357
				c-0.845,0.596-1.403,0.921-1.403,0.921l-0.038,0.022c-0.386,0.225-0.882,0.095-1.107-0.292
				C1601.054,1098.492,1601.174,1098.011,1601.537,1097.778z"/>
			<path style="fill:#FFFFFF;" d="M1612.785,1081.561c0,0,0.177-0.638,0.365-1.536c0.196-0.919,0.394-2.156,0.488-3.398
				c0.1-1.242,0.086-2.484,0.025-3.409c-0.042-0.461-0.077-0.845-0.102-1.114c-0.034-0.277-0.053-0.435-0.053-0.435
				c-0.088-0.698,0.407-1.334,1.104-1.422c0.698-0.088,1.334,0.406,1.422,1.104c0.001,0.01,0.003,0.031,0.004,0.041
				c0,0,0.016,0.166,0.042,0.456c0.019,0.3,0.047,0.729,0.079,1.243c0.039,1.029,0.016,2.4-0.131,3.756
				c-0.14,1.357-0.394,2.694-0.633,3.682c-0.242,1.01-0.433,1.624-0.433,1.624l-0.014,0.045c-0.185,0.595-0.817,0.927-1.412,0.742
				C1612.954,1082.758,1612.624,1082.145,1612.785,1081.561z"/>
			<path style="fill:#FFFFFF;" d="M1610.98,1061.917c0,0-0.239-0.592-0.597-1.479c-0.367-0.879-0.891-2.038-1.456-3.18
				c-1.122-2.288-2.429-4.495-2.429-4.495c-0.439-0.742-0.194-1.7,0.548-2.14c0.742-0.439,1.7-0.194,2.14,0.548
				c0.006,0.01,0.012,0.021,0.018,0.031l0.013,0.024c0,0,1.29,2.321,2.399,4.75c0.558,1.212,1.075,2.445,1.436,3.382
				c0.349,0.936,0.581,1.56,0.581,1.56c0.273,0.734-0.1,1.549-0.834,1.823c-0.72,0.268-1.521-0.087-1.807-0.795L1610.98,1061.917z"
				/>
			<path style="fill:#FFFFFF;" d="M1600.9,1044.131l-6.061-8.491c-0.59-0.826-0.398-1.974,0.428-2.563
				c0.826-0.59,1.974-0.398,2.563,0.428c0.007,0.01,0.014,0.02,0.021,0.031l0.017,0.024l5.845,8.639
				c0.528,0.781,0.323,1.841-0.457,2.369c-0.768,0.519-1.807,0.33-2.344-0.42L1600.9,1044.131z"/>
			<path style="fill:#FFFFFF;" d="M1588.921,1026.852l-5.214-9.034c-0.556-0.963-0.226-2.195,0.737-2.751
				c0.963-0.556,2.195-0.226,2.751,0.737c0.004,0.007,0.013,0.023,0.017,0.03l5.06,9.121c0.516,0.93,0.181,2.102-0.749,2.618
				C1590.603,1028.083,1589.445,1027.759,1588.921,1026.852z"/>
			<path style="fill:#FFFFFF;" d="M1579.031,1008.167l-3.881-9.682c-0.451-1.123,0.094-2.398,1.217-2.849s2.398,0.095,2.849,1.217
				c0.003,0.008,0.011,0.027,0.014,0.035l3.717,9.746c0.414,1.085-0.13,2.3-1.214,2.714
				C1580.659,1009.759,1579.458,1009.229,1579.031,1008.167z"/>
			<path style="fill:#FFFFFF;" d="M1571.849,988.274l-2.546-10.115c-0.319-1.268,0.449-2.554,1.717-2.874
				c1.268-0.319,2.554,0.449,2.874,1.717c0.002,0.009,0.008,0.031,0.01,0.04l2.374,10.157c0.287,1.225-0.474,2.451-1.699,2.738
				C1573.365,990.221,1572.152,989.477,1571.849,988.274z"/>
			<path style="fill:#FFFFFF;" d="M1567.363,967.597l-1.238-10.357c-0.167-1.395,0.829-2.661,2.224-2.828
				c1.395-0.167,2.661,0.828,2.828,2.223c0.001,0.01,0.004,0.034,0.005,0.043l1.062,10.377c0.138,1.349-0.843,2.555-2.192,2.693
				C1568.717,969.885,1567.522,968.924,1567.363,967.597z"/>
			<path style="fill:#FFFFFF;" d="M1565.513,946.507l0.042-10.431c0.006-1.498,1.225-2.707,2.722-2.701
				c1.498,0.006,2.707,1.225,2.702,2.723c0,0.009,0,0.033,0,0.042l-0.202,10.429c-0.028,1.453-1.229,2.609-2.682,2.581
				C1566.655,949.121,1565.508,947.941,1565.513,946.507z"/>
			<path style="fill:#FFFFFF;" d="M1566.292,925.347l1.328-10.346c0.195-1.518,1.583-2.59,3.1-2.395
				c1.518,0.195,2.59,1.583,2.395,3.1l-0.002,0.016l-1.386,10.338c-0.201,1.5-1.581,2.554-3.081,2.353
				C1567.151,928.213,1566.1,926.841,1566.292,925.347z"/>
			<path style="fill:#FFFFFF;" d="M1569.618,904.429l2.537-10.117c0.38-1.515,1.917-2.436,3.432-2.056
				c1.515,0.38,2.436,1.917,2.056,3.432l-0.004,0.016l-2.594,10.103c-0.384,1.497-1.91,2.4-3.408,2.015
				C1570.145,907.439,1569.244,905.922,1569.618,904.429z"/>
			<path style="fill:#FFFFFF;" d="M1575.393,884.039l3.728-9.742c0.57-1.489,2.239-2.234,3.728-1.665
				c1.489,0.57,2.234,2.239,1.665,3.728l-0.006,0.016l-3.782,9.721c-0.572,1.471-2.229,2.199-3.7,1.627
				C1575.56,887.154,1574.832,885.506,1575.393,884.039z"/>
			<path style="fill:#FFFFFF;" d="M1583.589,864.476l4.903-9.206c0.765-1.436,2.549-1.98,3.984-1.215
				c1.436,0.765,1.98,2.549,1.215,3.984l-0.008,0.015l-4.955,9.179c-0.765,1.417-2.534,1.946-3.952,1.181
				C1583.365,867.651,1582.835,865.89,1583.589,864.476z"/>
			<path style="fill:#FFFFFF;" d="M1594.179,846.07l6.056-8.492c0.963-1.351,2.839-1.665,4.19-0.702
				c1.351,0.963,1.665,2.839,0.702,4.19l-0.01,0.014l-6.104,8.458c-0.961,1.332-2.821,1.633-4.153,0.671
				C1593.532,849.252,1593.23,847.401,1594.179,846.07z"/>
			<path style="fill:#FFFFFF;" d="M1607.117,829.195l7.163-7.582c1.161-1.229,3.1-1.285,4.329-0.123
				c1.229,1.161,1.285,3.1,0.123,4.329l-0.012,0.013l-7.205,7.542c-1.157,1.211-3.077,1.255-4.288,0.098
				C1606.019,832.319,1605.973,830.407,1607.117,829.195z"/>
			<path style="fill:#FFFFFF;" d="M1622.272,814.281c0,0,2.03-1.637,4.059-3.273c0.507-0.409,1.015-0.818,1.49-1.202l0.35-0.282
				c0.147-0.112,0.29-0.223,0.43-0.33c0.225-0.167,0.438-0.324,0.634-0.47c0.785-0.582,1.309-0.97,1.309-0.97
				c1.378-1.021,3.324-0.732,4.345,0.646c1.018,1.374,0.733,3.312-0.634,4.336c0,0-0.522,0.391-1.304,0.977
				c-0.196,0.146-0.408,0.305-0.632,0.473c-0.193,0.151-0.396,0.311-0.606,0.476c-0.478,0.381-0.987,0.787-1.497,1.194
				c-2.039,1.625-4.077,3.25-4.077,3.25c-1.335,1.064-3.28,0.845-4.344-0.49C1620.734,817.285,1620.949,815.348,1622.272,814.281z"
				/>
			<path style="fill:#FFFFFF;" d="M1639.393,801.708l8.922-5.402c1.442-0.875,3.32-0.416,4.195,1.025
				c0.873,1.437,0.415,3.31-1.016,4.189l-8.895,5.447c-1.449,0.89-3.346,0.437-4.236-1.013c-0.89-1.45-0.437-3.346,1.013-4.236
				L1639.393,801.708z"/>
			<path style="fill:#FFFFFF;" d="M1657.716,791.206l9.358-4.606c1.486-0.734,3.286-0.124,4.02,1.362
				c0.732,1.481,0.124,3.276-1.352,4.015l-9.335,4.653c-1.495,0.748-3.314,0.142-4.062-1.353c-0.748-1.495-0.142-3.314,1.353-4.062
				L1657.716,791.206z"/>
			<path style="fill:#FFFFFF;" d="M1676.721,782.223l9.598-4.083c1.497-0.639,3.23,0.057,3.869,1.554
				c0.637,1.493-0.056,3.221-1.544,3.865l-9.577,4.131c-1.508,0.653-3.259-0.04-3.912-1.548c-0.653-1.508,0.04-3.259,1.548-3.911
				L1676.721,782.223z"/>
			<path style="fill:#FFFFFF;" d="M1696.048,774.183l9.695-3.846c1.486-0.592,3.17,0.133,3.761,1.619
				c0.59,1.481-0.133,3.161-1.609,3.757l-9.676,3.895c-1.496,0.605-3.199-0.118-3.804-1.615c-0.604-1.496,0.119-3.199,1.615-3.804
				L1696.048,774.183z"/>
			<path style="fill:#FFFFFF;" d="M1715.429,766.506l9.675-3.897c1.456-0.589,3.113,0.115,3.701,1.57
				c0.586,1.451-0.114,3.104-1.56,3.697l-9.656,3.946c-1.466,0.601-3.142-0.1-3.744-1.566c-0.601-1.466,0.1-3.142,1.566-3.743
				L1715.429,766.506z"/>
			<path style="fill:#FFFFFF;" d="M1734.633,758.618l9.532-4.236c1.408-0.628,3.057,0.005,3.685,1.412
				c0.626,1.403-0.005,3.048-1.402,3.681l-9.51,4.284c-1.417,0.641-3.086,0.011-3.727-1.406c-0.641-1.417-0.011-3.086,1.406-3.727
				L1734.633,758.618z"/>
			<path style="fill:#FFFFFF;" d="M1753.403,749.95l9.231-4.861c1.337-0.706,2.993-0.195,3.7,1.142
				c0.704,1.333,0.194,2.985-1.133,3.695l-9.206,4.908c-1.346,0.72-3.021,0.212-3.741-1.134c-0.72-1.346-0.212-3.021,1.134-3.741
				L1753.403,749.95z"/>
			<path style="fill:#FFFFFF;" d="M1771.403,739.952l8.732-5.706c1.219-0.799,2.855-0.458,3.653,0.761
				c0.792,1.208,0.46,2.829-0.733,3.635l-8.651,5.827c-1.241,0.838-2.927,0.512-3.764-0.729c-0.838-1.241-0.512-2.926,0.729-3.765
				C1771.375,739.97,1771.396,739.956,1771.403,739.952z"/>
			<path style="fill:#FFFFFF;" d="M1788.231,728.235l7.884-6.83c1.034-0.898,2.6-0.789,3.498,0.245
				c0.889,1.024,0.786,2.574-0.22,3.476l-7.779,6.949c-1.052,0.943-2.671,0.855-3.614-0.198c-0.943-1.053-0.855-2.671,0.198-3.614
				C1788.205,728.258,1788.225,728.241,1788.231,728.235z"/>
			<path style="fill:#FFFFFF;" d="M1803.134,714.153c0,0,0.419-0.484,1.047-1.21c0.62-0.726,1.432-1.706,2.221-2.704
				c1.585-1.991,3.04-4.073,3.04-4.073c0.734-1.05,2.181-1.307,3.231-0.573c1.04,0.727,1.302,2.153,0.594,3.201l-0.007,0.011
				c0,0-1.5,2.219-3.134,4.334c-0.813,1.061-1.649,2.102-2.288,2.873c-0.64,0.763-1.067,1.272-1.067,1.272
				c-0.852,1.016-2.366,1.148-3.381,0.296c-1.016-0.852-1.148-2.366-0.296-3.381c0.005-0.006,0.01-0.012,0.016-0.018
				L1803.134,714.153z"/>
			<path style="fill:#FFFFFF;" d="M1814.734,697.536c0,0,0.29-0.566,0.724-1.416c0.425-0.848,0.966-1.99,1.472-3.148
				c1.022-2.312,1.841-4.698,1.841-4.698c0.388-1.129,1.617-1.73,2.746-1.343c1.118,0.384,1.718,1.593,1.354,2.713l-0.005,0.016
				c0,0-0.837,2.564-1.888,5.042c-0.52,1.241-1.077,2.465-1.514,3.373c-0.442,0.899-0.737,1.498-0.737,1.498
				c-0.546,1.111-1.89,1.568-3,1.021c-1.11-0.546-1.568-1.89-1.022-3c0.003-0.007,0.007-0.013,0.01-0.02L1814.734,697.536z"/>
			<path style="fill:#FFFFFF;" d="M1821.274,678.545c0,0,0.096-0.629,0.24-1.573c0.126-0.908,0.262-2.163,0.336-3.408
				c0.167-2.497,0.048-5.006,0.048-5.006c-0.053-1.104,0.8-2.042,1.905-2.095c1.094-0.052,2.024,0.784,2.093,1.872l0.001,0.024
				c0,0,0.171,2.708,0.031,5.423c-0.061,1.361-0.185,2.703-0.312,3.735c-0.136,0.993-0.226,1.654-0.226,1.654
				c-0.156,1.139-1.206,1.936-2.345,1.78c-1.139-0.156-1.936-1.206-1.78-2.345c0.001-0.007,0.002-0.014,0.003-0.021
				L1821.274,678.545z"/>
			<path style="fill:#FFFFFF;" d="M1820.491,658.638c0,0-0.16-0.613-0.399-1.533c-0.249-0.91-0.615-2.114-1.031-3.302
				c-0.819-2.381-1.897-4.657-1.897-4.657c-0.436-0.92-0.043-2.019,0.877-2.455c0.911-0.431,1.997-0.051,2.442,0.85l0.008,0.017
				c0,0,1.196,2.429,2.114,4.972c0.466,1.268,0.88,2.555,1.161,3.529c0.269,0.97,0.448,1.617,0.448,1.617
				c0.283,1.023-0.317,2.083-1.34,2.366c-1.023,0.283-2.083-0.317-2.366-1.34c-0.002-0.006-0.003-0.012-0.005-0.019
				L1820.491,658.638z"/>
			<path style="fill:#FFFFFF;" d="M1812.013,640.554c0,0-0.392-0.496-0.979-1.24c-0.593-0.73-1.419-1.674-2.291-2.574
				c-1.733-1.815-3.706-3.361-3.706-3.361c-0.695-0.545-0.818-1.55-0.273-2.246c0.536-0.684,1.518-0.813,2.212-0.298l0.016,0.012
				c0,0,2.186,1.626,4.111,3.544c0.969,0.95,1.887,1.95,2.548,2.722c0.645,0.776,1.075,1.293,1.075,1.293
				c0.611,0.735,0.51,1.826-0.225,2.436c-0.735,0.611-1.826,0.51-2.436-0.224c-0.007-0.009-0.015-0.018-0.022-0.027
				L1812.013,640.554z"/>
			<path style="fill:#FFFFFF;" d="M1796.514,628.374c0,0-0.617-0.212-1.542-0.529c-0.463-0.159-1.003-0.344-1.581-0.542
				l-0.359-0.121l-0.449-0.122l-0.889-0.216c-2.414-0.566-4.915-0.622-4.915-0.622c-0.739-0.016-1.325-0.629-1.309-1.369
				c0.016-0.727,0.609-1.306,1.332-1.309l0.031,0c0,0,2.743-0.009,5.439,0.552c0.338,0.073,0.676,0.147,1.008,0.219l0.475,0.116
				l0.529,0.159c0.583,0.184,1.128,0.355,1.594,0.503c0.933,0.294,1.555,0.49,1.555,0.49c0.774,0.244,1.204,1.069,0.96,1.843
				c-0.244,0.774-1.069,1.204-1.843,0.96C1796.539,628.383,1796.523,628.377,1796.514,628.374z"/>
			<path style="fill:#FFFFFF;" d="M1776.911,627.571c0,0-0.603,0.199-1.507,0.498c-0.893,0.313-2.066,0.783-3.211,1.322
				c-2.3,1.062-4.418,2.47-4.418,2.47c-0.496,0.33-1.166,0.195-1.495-0.301c-0.324-0.488-0.199-1.144,0.277-1.479l0.014-0.01
				c0,0,2.203-1.546,4.621-2.737c1.203-0.603,2.442-1.136,3.388-1.494c0.946-0.339,1.577-0.565,1.577-0.565
				c0.629-0.225,1.321,0.102,1.546,0.73c0.225,0.629-0.102,1.321-0.73,1.546c-0.008,0.003-0.016,0.006-0.023,0.008L1776.911,627.571
				z"/>
			<path style="fill:#FFFFFF;" d="M1760.171,638.526c0,0-0.432,0.5-1.004,1.239c-0.586,0.749-1.326,1.781-1.987,2.863
				c-1.353,2.153-2.256,4.533-2.256,4.533c-0.153,0.403-0.604,0.607-1.008,0.453c-0.395-0.15-0.594-0.596-0.459-0.993
				c0,0,0.871-2.552,2.226-4.876c0.662-1.167,1.405-2.286,2.001-3.096c0.606-0.824,1.016-1.321,1.016-1.321l0.022-0.026
				c0.333-0.404,0.931-0.461,1.335-0.128c0.404,0.333,0.461,0.931,0.128,1.335C1760.181,638.514,1760.174,638.522,1760.171,638.526z
				"/>
			<path style="fill:#FFFFFF;" d="M1753.305,657.129c0,0,0.068,1.264,0.294,2.515c0.21,1.25,0.574,2.468,0.574,2.468
				c0.082,0.275-0.074,0.565-0.349,0.647c-0.269,0.08-0.555-0.075-0.644-0.339c0,0-0.423-1.259-0.688-2.564
				c-0.281-1.297-0.397-2.627-0.397-2.627l-0.001-0.016c-0.029-0.334,0.218-0.628,0.552-0.658c0.334-0.029,0.628,0.218,0.657,0.552
				C1753.304,657.114,1753.305,657.123,1753.305,657.129z"/>
		</g>
		<g>
			<path style="fill:#FFFFFF;" d="M1619.342,1106.811l4.903-1.7c1.145-0.397,2.396,0.209,2.793,1.355
				c0.397,1.145-0.209,2.395-1.354,2.793c-0.029,0.01-0.067,0.022-0.096,0.031l-4.976,1.474c-1.099,0.326-2.254-0.301-2.58-1.401
				C1617.715,1108.295,1618.302,1107.174,1619.342,1106.811z"/>
			<path style="fill:#FFFFFF;" d="M1633.051,1100.688c0,0,0.533-0.331,1.333-0.828c0.788-0.501,1.823-1.195,2.835-1.922
				c2.029-1.448,3.925-3.066,3.925-3.066c1.094-0.934,2.737-0.804,3.671,0.29s0.804,2.737-0.29,3.671
				c-0.02,0.017-0.04,0.033-0.06,0.05l-0.03,0.024c0,0-2.108,1.678-4.352,3.166c-1.119,0.748-2.262,1.459-3.131,1.971
				c-0.868,0.499-1.447,0.832-1.447,0.832c-1.162,0.668-2.645,0.268-3.312-0.894c-0.653-1.136-0.285-2.58,0.819-3.268
				L1633.051,1100.688z"/>
			<path style="fill:#FFFFFF;" d="M1648.223,1087.894c0,0,0.407-0.477,1.017-1.193c0.598-0.716,1.375-1.688,2.121-2.682
				c1.501-1.984,2.834-4.081,2.834-4.081c0.877-1.378,2.705-1.785,4.083-0.908c1.379,0.877,1.785,2.705,0.909,4.083
				c-0.016,0.025-0.032,0.05-0.049,0.074l-0.023,0.034c0,0-1.527,2.229-3.227,4.323c-0.846,1.05-1.723,2.074-2.397,2.827
				c-0.676,0.741-1.126,1.235-1.126,1.235c-1.035,1.134-2.793,1.214-3.927,0.18c-1.109-1.012-1.211-2.717-0.246-3.852
				L1648.223,1087.894z"/>
			<path style="fill:#FFFFFF;" d="M1658.914,1071.243c0,0,0.252-0.572,0.63-1.43c0.369-0.852,0.835-1.998,1.265-3.157
				c0.87-2.316,1.537-4.693,1.537-4.693c0.485-1.727,2.278-2.734,4.005-2.249c1.727,0.485,2.734,2.278,2.249,4.005
				c-0.005,0.017-0.01,0.033-0.014,0.05l-0.013,0.043c0,0-0.791,2.605-1.798,5.128c-0.498,1.263-1.036,2.509-1.459,3.433
				c-0.431,0.911-0.719,1.519-0.719,1.519c-0.74,1.564-2.609,2.233-4.173,1.492c-1.537-0.728-2.209-2.544-1.53-4.092
				L1658.914,1071.243z"/>
			<path style="fill:#FFFFFF;" d="M1664.277,1052.349c0,0,0.064-0.616,0.16-1.542c0.085-0.915,0.168-2.137,0.208-3.359
				c0.091-2.446-0.054-4.883-0.054-4.883c-0.114-1.91,1.342-3.55,3.252-3.664c1.91-0.114,3.55,1.343,3.663,3.252
				c0.001,0.019,0.002,0.037,0.003,0.056l0.002,0.053c0,0,0.105,2.747-0.054,5.482c-0.073,1.367-0.194,2.73-0.311,3.749
				c-0.126,1.006-0.209,1.677-0.209,1.677c-0.229,1.839-1.906,3.143-3.745,2.914c-1.815-0.227-3.109-1.862-2.922-3.672
				L1664.277,1052.349z"/>
			<path style="fill:#FFFFFF;" d="M1663.247,1032.867c0,0-0.137-0.609-0.343-1.524c-0.211-0.905-0.517-2.108-0.851-3.308
				c-0.663-2.4-1.465-4.78-1.465-4.78c-0.649-1.926,0.386-4.014,2.313-4.663c1.926-0.649,4.014,0.386,4.663,2.312
				c0.006,0.018,0.012,0.036,0.018,0.055l0.015,0.048c0,0,0.8,2.549,1.464,5.158c0.334,1.303,0.638,2.618,0.848,3.61
				c0.201,0.986,0.334,1.643,0.334,1.643c0.393,1.933-0.855,3.819-2.788,4.212c-1.907,0.388-3.769-0.822-4.196-2.711
				L1663.247,1032.867z"/>
			<path style="fill:#FFFFFF;" d="M1657.062,1013.817l-4.037-9.543c-0.837-1.978,0.088-4.26,2.066-5.096
				c1.978-0.837,4.26,0.088,5.097,2.066c0.007,0.017,0.014,0.034,0.021,0.051l0.018,0.044l3.851,9.619
				c0.778,1.942-0.166,4.147-2.109,4.925c-1.918,0.768-4.092-0.143-4.895-2.037L1657.062,1013.817z"/>
			<path style="fill:#FFFFFF;" d="M1648.978,994.57l-3.604-9.715c-0.761-2.05,0.285-4.329,2.335-5.09s4.329,0.285,5.09,2.335
				l0.01,0.026l0.01,0.027l3.537,9.739c0.74,2.037-0.312,4.288-2.349,5.028c-2.028,0.737-4.268-0.302-5.018-2.322L1648.978,994.57z"
				/>
			<path style="fill:#FFFFFF;" d="M1642.434,974.337c0,0-0.137-0.662-0.342-1.655c-0.199-1.005-0.435-2.351-0.633-3.702
				c-0.405-2.702-0.603-5.424-0.603-5.424l-0.002-0.033c-0.161-2.221,1.509-4.152,3.729-4.313c2.221-0.161,4.151,1.509,4.313,3.729
				l0.002,0.028c0,0,0.161,2.45,0.508,4.878c0.169,1.214,0.373,2.422,0.545,3.325c0.182,0.911,0.303,1.519,0.303,1.519l0.011,0.057
				c0.432,2.164-0.972,4.268-3.135,4.701C1644.974,977.876,1642.879,976.485,1642.434,974.337z"/>
			<path style="fill:#FFFFFF;" d="M1640.753,952.649c0,0,0.045-0.672,0.112-1.681c0.076-1.018,0.203-2.372,0.365-3.722
				c0.316-2.702,0.818-5.373,0.818-5.373l0.006-0.03c0.418-2.227,2.562-3.694,4.79-3.276c2.227,0.418,3.694,2.562,3.276,4.789
				l-0.005,0.028c0,0-0.472,2.421-0.775,4.865c-0.156,1.221-0.279,2.446-0.354,3.366c-0.068,0.93-0.114,1.55-0.114,1.55
				l-0.004,0.053c-0.165,2.24-2.114,3.923-4.354,3.758C1642.282,956.811,1640.605,954.876,1640.753,952.649z"/>
			<path style="fill:#FFFFFF;" d="M1644.655,931.331c0,0,0.206-0.64,0.515-1.599c0.319-0.966,0.766-2.246,1.245-3.515
				c0.949-2.541,2.059-5.016,2.059-5.016l0.011-0.026c0.943-2.104,3.414-3.044,5.517-2.101c2.104,0.943,3.044,3.414,2.101,5.517
				l-0.012,0.026c0,0-1.027,2.248-1.907,4.557c-0.443,1.153-0.859,2.316-1.155,3.193c-0.293,0.888-0.488,1.48-0.488,1.48
				l-0.016,0.047c-0.715,2.171-3.055,3.351-5.226,2.635C1645.138,935.818,1643.959,933.494,1644.655,931.331z"/>
			<path style="fill:#FFFFFF;" d="M1653.444,911.555c0,0,0.347-0.576,0.867-1.439c0.527-0.869,1.267-2.006,2.029-3.128
				c1.519-2.247,3.179-4.394,3.179-4.394l0.015-0.019c1.415-1.83,4.046-2.165,5.875-0.75c1.82,1.408,2.161,4.019,0.771,5.848
				c0,0-1.495,1.966-2.862,4.025c-0.668,1.038-1.336,2.077-1.838,2.856c-0.488,0.798-0.813,1.33-0.813,1.33l-0.026,0.042
				c-1.214,1.983-3.805,2.608-5.789,1.394C1652.878,916.11,1652.252,913.535,1653.444,911.555z"/>
			<path style="fill:#FFFFFF;" d="M1666.634,894.385c0,0,0.475-0.477,1.186-1.192c0.724-0.716,1.706-1.655,2.712-2.568
				c2.006-1.833,4.137-3.527,4.137-3.527l0.019-0.015c1.774-1.41,4.354-1.115,5.764,0.659c1.403,1.764,1.117,4.329-0.632,5.744
				c0,0-1.916,1.548-3.722,3.227c-0.906,0.836-1.79,1.694-2.442,2.35c-0.653,0.667-1.089,1.112-1.089,1.112l-0.034,0.035
				c-1.602,1.636-4.226,1.664-5.862,0.063c-1.636-1.602-1.664-4.226-0.062-5.862L1666.634,894.385z"/>
			<path style="fill:#FFFFFF;" d="M1683.597,880.848c0,0,0.581-0.344,1.452-0.86c0.884-0.514,2.077-1.177,3.288-1.805
				c2.418-1.267,4.929-2.348,4.929-2.348l0.025-0.011c2.038-0.877,4.401,0.064,5.278,2.102c0.872,2.027-0.056,4.377-2.072,5.265
				c0,0-2.246,0.988-4.411,2.146c-1.085,0.575-2.153,1.18-2.946,1.65c-0.797,0.482-1.329,0.803-1.329,0.803l-0.045,0.027
				c-1.919,1.159-4.415,0.543-5.574-1.376c-1.159-1.919-0.543-4.415,1.376-5.574L1683.597,880.848z"/>
			<path style="fill:#FFFFFF;" d="M1703.639,872.149l10.064-2.467l0.035-0.009c2.109-0.517,4.238,0.774,4.755,2.883
				c0.514,2.098-0.762,4.216-2.851,4.747l-10.043,2.55l-0.035,0.009c-2.128,0.54-4.291-0.747-4.831-2.874
				c-0.54-2.128,0.747-4.29,2.874-4.831L1703.639,872.149z"/>
			<path style="fill:#FFFFFF;" d="M1724.025,867.648l10.176-2.001l0.033-0.007c2.043-0.402,4.025,0.929,4.427,2.972
				c0.396,2.013-0.895,3.968-2.887,4.409l-10.126,2.234l-0.034,0.008c-2.098,0.463-4.174-0.863-4.636-2.96
				c-0.463-2.098,0.863-4.174,2.96-4.636C1723.96,867.661,1724.002,867.653,1724.025,867.648z"/>
			<path style="fill:#FFFFFF;" d="M1743.829,863.146c0,0,0.591-0.194,1.477-0.485c0.875-0.295,2.032-0.714,3.174-1.167
				c2.291-0.897,4.488-1.982,4.488-1.982c1.739-0.859,3.845-0.146,4.705,1.593c0.846,1.711,0.168,3.779-1.511,4.663l-0.022,0.012
				c0,0-2.422,1.272-4.934,2.328c-1.253,0.534-2.521,1.029-3.479,1.379c-0.952,0.339-1.586,0.565-1.586,0.565
				c-1.895,0.675-3.977-0.314-4.652-2.209c-0.675-1.894,0.314-3.977,2.209-4.652c0.023-0.008,0.047-0.016,0.07-0.024
				L1743.829,863.146z"/>
			<path style="fill:#FFFFFF;" d="M1761.272,854.502c0,0,0.485-0.373,1.212-0.933c0.708-0.561,1.626-1.336,2.499-2.153
				c1.762-1.622,3.256-3.459,3.256-3.459c1.134-1.394,3.183-1.605,4.578-0.472c1.373,1.116,1.599,3.12,0.524,4.512l-0.018,0.023
				c0,0-1.731,2.238-3.742,4.182c-0.996,0.98-2.037,1.905-2.837,2.571c-0.797,0.647-1.328,1.078-1.328,1.078
				c-1.451,1.177-3.582,0.955-4.759-0.496c-1.177-1.451-0.955-3.582,0.496-4.759c0.018-0.015,0.036-0.029,0.054-0.043
				L1761.272,854.502z"/>
			<path style="fill:#FFFFFF;" d="M1772.976,840.065c0,0,0.216-0.611,0.539-1.528c0.081-0.229,0.169-0.477,0.261-0.74l0.017-0.049
				l0.009-0.025l0.002-0.006l0.001-0.003c0.042-0.139-0.056,0.186-0.046,0.152l0.004-0.013l0.03-0.102l0.061-0.208l0.104-0.369
				c0.129-0.474,0.257-1.038,0.353-1.583c0.417-2.207,0.285-4.517,0.285-4.517c-0.092-1.599,1.13-2.969,2.729-3.06
				c1.554-0.089,2.891,1.063,3.05,2.595l0.007,0.073c0,0,0.294,2.892-0.13,5.82c-0.1,0.736-0.228,1.443-0.388,2.149l-0.118,0.497
				l-0.053,0.21l-0.103,0.359c-0.082,0.266-0.159,0.518-0.231,0.75c-0.286,0.929-0.477,1.548-0.477,1.548
				c-0.506,1.642-2.247,2.564-3.889,2.058c-1.642-0.506-2.564-2.247-2.058-3.889
				C1772.947,840.149,1772.963,840.101,1772.976,840.065z"/>
			<path style="fill:#FFFFFF;" d="M1772.414,822.121c0,0-0.069-0.147-0.19-0.403c-0.114-0.227-0.276-0.551-0.47-0.94
				c-0.406-0.78-1.004-1.79-1.681-2.743c-1.335-1.932-3.061-3.484-3.061-3.484c-1.017-0.915-1.101-2.482-0.186-3.499
				c0.891-0.991,2.402-1.096,3.42-0.254l0.022,0.019c0,0,2.23,1.85,3.949,4.134c0.874,1.127,1.648,2.322,2.179,3.247
				c0.26,0.47,0.476,0.863,0.628,1.137c0.131,0.251,0.206,0.395,0.206,0.395c0.688,1.316,0.178,2.941-1.139,3.628
				c-1.317,0.688-2.941,0.178-3.629-1.139C1772.447,822.19,1772.428,822.151,1772.414,822.121z"/>
			<path style="fill:#FFFFFF;" d="M1759.111,810.388c0,0-0.285-0.047-0.712-0.118c-0.416-0.061-0.975-0.115-1.538-0.132
				c-1.126-0.044-2.258,0.112-2.258,0.112c-1.135,0.157-2.183-0.636-2.34-1.772c-0.151-1.095,0.58-2.108,1.65-2.32l0.031-0.006
				c0,0,1.435-0.282,2.91-0.307c0.735-0.019,1.472,0.011,2.023,0.061c0.537,0.058,0.895,0.097,0.895,0.097
				c1.218,0.133,2.098,1.227,1.965,2.446c-0.133,1.218-1.227,2.098-2.446,1.965c-0.039-0.004-0.078-0.009-0.116-0.016
				L1759.111,810.388z"/>
		</g>
	</g>
</g>
</svg>
