<svg width="53" height="36" viewBox="0 0 53 36" fill="none" xmlns="http://www.w3.org/2000/svg">
<g clip-path="url(#clip0_601_19)">
<path d="M52.1953 18C52.1953 19.5917 51.563 21.1181 50.4375 22.2436C49.312 23.369 47.7856 24.0013 46.1939 24.0013C45.2748 23.9987 44.3674 24.2077 43.542 24.6121C42.9584 24.9055 42.4262 25.2914 41.9658 25.7548C41.8831 25.8415 41.7964 25.9321 41.7176 26.0228C41.542 26.2166 41.3813 26.4234 41.2369 26.6414C41.1738 26.7321 41.1147 26.8227 41.0595 26.9212C40.9905 27.0321 40.9273 27.1465 40.8704 27.264C40.8113 27.3783 40.7601 27.4847 40.7088 27.599C40.7088 27.6226 40.7088 27.6423 40.6813 27.662C40.634 27.7723 40.5946 27.8787 40.5552 27.993C40.5138 28.1094 40.4782 28.2277 40.4488 28.3476C40.3674 28.6196 40.3081 28.8976 40.2714 29.1791C40.2316 29.4518 40.2118 29.727 40.2123 30.0026C40.2137 31.1902 39.8629 32.3514 39.2044 33.3397C38.5458 34.3279 37.6091 35.0987 36.5126 35.5546C35.416 36.0105 34.2089 36.131 33.0439 35.901C31.8788 35.671 30.8081 35.1007 29.9672 34.2623C29.1277 33.423 28.5561 32.3536 28.3245 31.1894C28.0928 30.0251 28.2117 28.8184 28.666 27.7217C29.1202 26.625 29.8895 25.6877 30.8766 25.0283C31.8636 24.3689 33.024 24.017 34.211 24.0171C35.1553 24.019 36.0863 23.7947 36.926 23.363C38.0865 22.7741 39.0241 21.824 39.5976 20.6559C40.0055 19.8358 40.216 18.9317 40.2123 18.0158C40.2136 16.4974 40.7902 15.036 41.8262 13.926C42.8621 12.8159 44.2803 12.1398 45.7949 12.0339C47.3095 11.928 48.808 12.4001 49.9884 13.3551C51.1688 14.3101 51.9433 15.677 52.1559 17.1804C52.1881 17.4523 52.2013 17.7262 52.1953 18Z" fill="url(#paint0_linear_601_19)"/>
<path d="M52.1952 18C52.1952 19.5917 51.563 21.1181 50.4375 22.2436C49.312 23.369 47.7856 24.0013 46.1939 24.0013C45.2748 23.9987 44.3674 24.2077 43.542 24.6121C42.9584 24.9055 42.4262 25.2914 41.9658 25.7548C41.8831 25.8415 41.7964 25.9321 41.7176 26.0228C41.542 26.2166 41.3813 26.4234 41.2368 26.6414C41.1738 26.7321 41.1147 26.8227 41.0595 26.9212C40.9905 27.0321 40.9273 27.1465 40.8704 27.264C40.8102 27.3725 40.7563 27.4843 40.7088 27.599C40.7088 27.6226 40.7088 27.6423 40.6812 27.662C40.634 27.7723 40.5945 27.8787 40.5551 27.993C40.5119 28.1088 40.4764 28.2272 40.4488 28.3476C40.3674 28.6196 40.3081 28.8976 40.2714 29.1791C40.2316 29.4518 40.2118 29.727 40.2123 30.0026C40.2137 31.1902 39.8629 32.3515 39.2044 33.3397C38.5458 34.3279 37.6091 35.0987 36.5125 35.5546C35.416 36.0105 34.2089 36.131 33.0439 35.901C31.8788 35.671 30.8081 35.1007 29.9671 34.2623C29.9288 33.9868 29.9103 33.709 29.912 33.4308C29.9099 32.6422 30.0637 31.8608 30.3646 31.1318C30.6654 30.4027 31.1074 29.7403 31.6651 29.1826C32.2228 28.6249 32.8852 28.183 33.6142 27.8821C34.3433 27.5813 35.1246 27.4274 35.9133 27.4295C37.5042 27.4285 39.0297 26.7957 40.1543 25.6704C41.2789 24.545 41.9107 23.0192 41.9107 21.4282C41.9085 20.2403 42.2587 19.0785 42.917 18.0897C43.5752 17.1009 44.5119 16.3295 45.6086 15.8731C46.7053 15.4167 47.9127 15.2958 49.0781 15.5257C50.2436 15.7556 51.3146 16.3259 52.1558 17.1646C52.1888 17.4418 52.202 17.721 52.1952 18Z" fill="url(#paint1_linear_601_19)"/>
<path style="mix-blend-mode:screen" opacity="0.15" d="M41.0398 26.9212C40.4847 27.8531 40.1919 28.9179 40.1926 30.0026C40.194 31.1902 39.8432 32.3515 39.1847 33.3397C38.5261 34.3279 37.5894 35.0987 36.4928 35.5546C35.3963 36.0105 34.1892 36.1311 33.0242 35.901C31.8591 35.671 30.7884 35.1007 29.9474 34.2623C29.108 33.423 28.5364 32.3536 28.3047 31.1894C28.0731 30.0252 28.192 28.8184 28.6463 27.7217C29.1005 26.625 29.8698 25.6877 30.8568 25.0283C31.8439 24.3689 33.0043 24.017 34.1913 24.0171C35.1356 24.019 36.0665 23.7947 36.9063 23.363C38.4613 24.3261 39.856 25.5267 41.0398 26.9212Z" fill="url(#paint2_linear_601_19)"/>
<path opacity="0.37" d="M52.1953 18C52.1953 19.5917 51.563 21.1181 50.4375 22.2436C49.3121 23.369 47.7856 24.0013 46.194 24.0013C45.2748 23.9987 44.3674 24.2077 43.542 24.6121C42.8238 24.3205 42.1583 23.9132 41.5718 23.4063C40.6966 22.6591 40.013 21.7134 39.5779 20.648C39.9858 19.8279 40.1963 18.9238 40.1927 18.0079C40.1939 16.4896 40.7706 15.0281 41.8065 13.9181C42.8424 12.8081 44.2606 12.132 45.7752 12.026C47.2899 11.9201 48.7884 12.3922 49.9687 13.3472C51.1491 14.3022 51.9236 15.6691 52.1362 17.1725C52.1754 17.4466 52.1951 17.7231 52.1953 18Z" fill="#070707"/>
<path d="M52.1953 18C52.1982 18.9605 51.9669 19.9073 51.5215 20.7583C50.9051 21.9547 49.9043 22.909 48.6799 23.4678C47.4556 24.0265 46.0789 24.1572 44.7712 23.8388C43.4636 23.5204 42.3011 22.7715 41.4706 21.7124C40.6402 20.6534 40.19 19.3458 40.1927 18C40.1938 16.5835 39.6929 15.2125 38.7788 14.1304C37.8648 13.0483 36.5968 12.3251 35.2001 12.0893C34.8669 12.0324 34.5294 12.0034 34.1914 12.0026C33.0026 12.0034 31.8404 11.6514 30.8519 10.9911C29.8634 10.3308 29.0931 9.39205 28.6386 8.29365C28.184 7.19525 28.0657 5.98666 28.2985 4.82097C28.5314 3.65527 29.105 2.5849 29.9467 1.74545C30.7883 0.905994 31.8602 0.335216 33.0265 0.105412C34.1928 -0.124392 35.4011 -0.0028843 36.4983 0.454546C37.5955 0.911977 38.5323 1.68475 39.1899 2.67498C39.8476 3.66521 40.1966 4.82836 40.1927 6.01708C40.1914 6.80504 40.3457 7.58549 40.6466 8.31373C40.9475 9.04197 41.3891 9.70368 41.9462 10.261L42.0447 10.3595C43.1628 11.4252 44.6493 12.0181 46.194 12.0145C47.7856 12.0145 49.3121 12.6467 50.4375 13.7722C51.563 14.8977 52.1953 16.4241 52.1953 18.0158V18Z" fill="url(#paint3_linear_601_19)"/>
<path d="M52.1953 18C52.1981 18.9605 51.9668 19.9073 51.5215 20.7583C50.6704 21.2037 49.7237 21.435 48.7631 21.4321C47.9748 21.4337 47.1939 21.2795 46.4653 20.9784C45.7367 20.6773 45.0748 20.2353 44.5175 19.6776C43.9602 19.12 43.5186 18.4578 43.218 17.729C42.9174 17.0002 42.7637 16.2192 42.7658 15.4308C42.7673 14.6425 42.6131 13.8616 42.312 13.133C42.011 12.4044 41.5689 11.7424 41.0113 11.1852C40.4536 10.6279 39.7914 10.1863 39.0626 9.88567C38.3338 9.58506 37.5528 9.43138 36.7645 9.43346C35.7347 9.43262 34.7225 9.167 33.825 8.66211C32.9275 8.15722 32.1749 7.43004 31.6395 6.5504C31.1042 5.67076 30.804 4.66824 30.7678 3.63912C30.7316 2.61 30.9607 1.58888 31.433 0.673827C32.3487 0.198689 33.3714 -0.0322287 34.4024 0.00339435C35.4334 0.0390174 36.4378 0.339974 37.3185 0.877181C38.1991 1.41439 38.9264 2.16968 39.4299 3.07007C39.9333 3.97045 40.1961 4.98549 40.1926 6.01708C40.1932 6.80411 40.3489 7.58332 40.6509 8.31009C40.9529 9.03687 41.3953 9.69694 41.9527 10.2525C42.5102 10.8081 43.1717 11.2484 43.8995 11.548C44.6272 11.8476 45.4069 12.0008 46.194 11.9987C47.7856 11.9987 49.3121 12.631 50.4375 13.7564C51.563 14.8819 52.1953 16.4084 52.1953 18Z" fill="url(#paint4_linear_601_19)"/>
<path style="mix-blend-mode:screen" opacity="0.15" d="M52.1953 18C52.1981 18.9606 51.9668 19.9073 51.5214 20.7583C50.9051 21.9547 49.9042 22.909 48.6799 23.4678C47.4555 24.0265 46.0788 24.1572 44.7712 23.8388C43.4636 23.5204 42.3011 22.7715 41.4706 21.7125C40.6401 20.6534 40.19 19.3458 40.1926 18C40.1937 16.5835 39.6928 15.2125 38.7788 14.1304C37.8648 13.0483 36.5968 12.3251 35.2001 12.0893C37.3641 11.1192 39.6799 10.5312 42.0446 10.3516C43.1628 11.4173 44.6492 12.0102 46.1939 12.0066C47.7856 12.0066 49.312 12.6389 50.4375 13.7643C51.563 14.8898 52.1953 16.4163 52.1953 18.0079V18Z" fill="url(#paint5_linear_601_19)"/>
<path d="M2.6127e-05 18C-0.00282953 17.0395 0.228446 16.0927 0.673841 15.2417C1.2902 14.0453 2.29104 13.091 3.5154 12.5323C4.73975 11.9735 6.11645 11.8428 7.42407 12.1612C8.73169 12.4796 9.89422 13.2285 10.7247 14.2876C11.5551 15.3466 12.0053 16.6542 12.0027 18C12.0005 18.7887 12.1543 19.57 12.4552 20.299C12.7561 21.028 13.1983 21.6903 13.7562 22.2478C14.6334 23.1306 15.767 23.7139 16.9952 23.9146C17.3282 23.9735 17.6658 24.0025 18.004 24.0013C19.1902 24.0031 20.3493 24.3561 21.3351 25.0158C22.3209 25.6756 23.0892 26.6125 23.5432 27.7084C23.9971 28.8043 24.1164 30.0101 23.8858 31.1736C23.6553 32.3372 23.0853 33.4065 22.2478 34.2465C21.8101 34.6816 21.3093 35.0483 20.7623 35.3341C19.8475 35.8087 18.8258 36.0397 17.7959 36.0046C16.7659 35.9695 15.7623 35.6696 14.8819 35.1338C14.0016 34.5979 13.2741 33.8443 12.7698 32.9455C12.2655 32.0468 12.0013 31.0332 12.0027 30.0026C12.004 29.2141 11.8498 28.433 11.5489 27.7041C11.248 26.9752 10.8063 26.3128 10.2491 25.7548L10.1506 25.6563C9.03249 24.5906 7.54603 23.9977 6.00134 24.0013C5.21294 24.0024 4.43209 23.8478 3.70351 23.5466C2.97493 23.2454 2.31294 22.8034 1.75546 22.2459C1.19798 21.6884 0.75596 21.0264 0.454733 20.2978C0.153507 19.5692 -0.00101124 18.7884 2.6127e-05 18Z" fill="url(#paint6_linear_601_19)"/>
<path d="M2.6127e-05 18C-0.00282953 17.0395 0.228446 16.0927 0.673841 15.2417C1.52487 14.7963 2.47163 14.565 3.43216 14.5679C4.22052 14.5663 5.00141 14.7205 5.73001 15.0216C6.45861 15.3227 7.12055 15.7647 7.67782 16.3224C8.23509 16.88 8.67671 17.5422 8.97732 18.271C9.27793 18.9998 9.43161 19.7808 9.42953 20.5692C9.42797 21.3575 9.58217 22.1384 9.88326 22.867C10.1844 23.5956 10.6264 24.2576 11.184 24.8148C11.7417 25.3721 12.4039 25.8137 13.1327 26.1143C13.8615 26.415 14.6425 26.5686 15.4308 26.5666C16.4611 26.567 17.474 26.8326 18.372 27.3377C19.27 27.8428 20.0229 28.5704 20.5584 29.4506C21.0939 30.3308 21.3939 31.334 21.4296 32.3637C21.4653 33.3934 21.2355 34.4149 20.7623 35.3301C19.8475 35.8048 18.8258 36.0357 17.7958 36.0006C16.7659 35.9656 15.7623 35.6656 14.8819 35.1298C14.0016 34.594 13.2741 33.8404 12.7698 32.9416C12.2655 32.0428 12.0013 31.0293 12.0026 29.9987C12.0042 29.2103 11.85 28.4294 11.5489 27.7008C11.2478 26.9722 10.8058 26.3103 10.2481 25.753C9.69051 25.1958 9.02828 24.7541 8.29948 24.4535C7.57069 24.1529 6.78969 23.9992 6.00134 24.0013C5.21294 24.0024 4.43209 23.8478 3.70351 23.5466C2.97493 23.2454 2.31294 22.8034 1.75546 22.2459C1.19798 21.6884 0.75596 21.0264 0.454733 20.2978C0.153507 19.5693 -0.00101124 18.7884 2.6127e-05 18Z" fill="url(#paint7_linear_601_19)"/>
<path style="mix-blend-mode:screen" opacity="0.15" d="M16.9991 23.9146C14.834 24.8861 12.5169 25.4754 10.1506 25.6563C9.79376 25.3176 9.39676 25.0238 8.9685 24.7815C8.06787 24.2648 7.04756 23.9931 6.00922 23.9934C5.22053 23.9955 4.4392 23.8417 3.71015 23.5409C2.9811 23.24 2.3187 22.798 1.76101 22.2403C1.20332 21.6827 0.761348 21.0202 0.46049 20.2912C0.159633 19.5621 0.00582005 18.7808 0.00789966 17.9921C0.005044 17.0316 0.236326 16.0848 0.68172 15.2338C1.29915 14.0396 2.29995 13.0874 3.52346 12.5302C4.74697 11.9729 6.12222 11.843 7.42846 12.1611C8.7347 12.4793 9.89616 13.2271 10.7264 14.2845C11.5566 15.342 12.0075 16.6477 12.0066 17.9921C12.0034 18.7813 12.1571 19.5633 12.4588 20.2925C12.7605 21.0217 13.2042 21.6837 13.764 22.2399C14.6392 23.1249 15.7714 23.7109 16.9991 23.9146Z" fill="url(#paint8_linear_601_19)"/>
<path opacity="0.37" d="M12.8104 21.0184C12.0546 22.7169 10.679 24.0628 8.96453 24.7815C8.0639 24.2648 7.04358 23.9931 6.00524 23.9934C5.21656 23.9955 4.43524 23.8417 3.70618 23.5409C2.97713 23.24 2.31472 22.798 1.75704 22.2403C1.19935 21.6827 0.757375 21.0202 0.456517 20.2912C0.15566 19.5621 0.00185277 18.7808 0.00393238 17.9921C0.00107672 17.0316 0.232358 16.0848 0.677753 15.2338C1.29519 14.0396 2.29598 13.0874 3.51949 12.5302C4.743 11.9729 6.11826 11.843 7.4245 12.1611C8.73073 12.4793 9.89219 13.2271 10.7224 14.2845C11.5527 15.342 12.0035 16.6477 12.0026 17.9921C11.9983 19.0547 12.2771 20.0993 12.8104 21.0184Z" fill="#070707"/>
<path d="M-0.00012207 18C-0.00012207 16.4084 0.632154 14.8819 1.75762 13.7564C2.88308 12.631 4.40954 11.9987 6.00119 11.9987C6.78997 12.0015 7.57149 11.848 8.30059 11.5471C9.02969 11.2461 9.69191 10.8036 10.249 10.2452C10.3317 10.1585 10.4184 10.0679 10.4973 9.97725C10.6728 9.78341 10.8335 9.57661 10.978 9.3586C11.041 9.26797 11.1001 9.17733 11.1553 9.07882C11.2244 8.96796 11.2875 8.85353 11.3444 8.736C11.4036 8.62173 11.4548 8.51534 11.506 8.40107L11.5336 8.33802C11.5769 8.22768 11.6203 8.12129 11.6597 8.00702C11.7011 7.89067 11.7366 7.77231 11.7661 7.65238C11.8478 7.38055 11.9071 7.10247 11.9434 6.82094C11.9831 6.54955 12.0029 6.27561 12.0025 6.00133C12.0004 4.81345 12.3506 3.65163 13.0088 2.66281C13.667 1.67399 14.6038 0.902592 15.7005 0.446196C16.7972 -0.0102 18.0046 -0.131093 19.17 0.0988057C20.3354 0.328705 21.4065 0.899068 22.2477 1.73775C23.0871 2.57706 23.6588 3.64644 23.8904 4.81066C24.122 5.97488 24.0031 7.18164 23.5489 8.27831C23.0946 9.37498 22.3253 10.3123 21.3383 10.9717C20.3513 11.6312 19.1909 11.9831 18.0038 11.9829C17.0596 11.981 16.1286 12.2053 15.2888 12.6371C14.1284 13.2259 13.1907 14.176 12.6172 15.3441C12.2093 16.1642 11.9988 17.0683 12.0025 17.9843C12.0013 19.5026 11.4246 20.964 10.3887 22.074C9.35273 23.1841 7.93455 23.8602 6.41992 23.9661C4.90529 24.0721 3.4068 23.6 2.22643 22.6449C1.04606 21.6899 0.27155 20.323 0.0589824 18.8196C0.0200326 18.5482 0.000283714 18.2743 -0.00012207 18Z" fill="url(#paint9_linear_601_19)"/>
<path d="M-4.13973e-07 18C-4.13973e-07 16.4084 0.632275 14.8819 1.75774 13.7564C2.8832 12.631 4.40966 11.9987 6.00131 11.9987C6.79009 12.0015 7.57161 11.848 8.30071 11.5471C9.02981 11.2461 9.69203 10.8036 10.2491 10.2452C10.3319 10.1585 10.4186 10.0679 10.4974 9.97725C10.6729 9.78341 10.8336 9.57661 10.9781 9.3586C11.0412 9.26797 11.1003 9.17733 11.1554 9.07882C11.2245 8.96796 11.2876 8.85353 11.3446 8.736C11.4047 8.6275 11.4587 8.51568 11.5061 8.40107L11.5337 8.33802C11.5771 8.22768 11.6204 8.12129 11.6598 8.00702C11.703 7.89127 11.7386 7.7728 11.7662 7.65238C11.8479 7.38055 11.9073 7.10247 11.9435 6.82094C11.9832 6.54955 12.003 6.27561 12.0026 6.00133C12.0005 4.81345 12.3507 3.65163 13.0089 2.66281C13.6672 1.67399 14.6039 0.902592 15.7006 0.446196C16.7973 -0.0102 18.0047 -0.131093 19.1701 0.0988057C20.3355 0.328705 21.4066 0.899068 22.2478 1.73775C22.2863 2.01452 22.3047 2.29371 22.303 2.57313C22.3045 3.36282 22.1498 4.14501 21.8478 4.87464C21.5457 5.60427 21.1022 6.26692 20.5429 6.82439C19.9836 7.38187 19.3195 7.82316 18.5889 8.12284C17.8583 8.42252 17.0756 8.57467 16.2859 8.57051C14.6949 8.57155 13.1695 9.20429 12.0449 10.3296C10.9203 11.455 10.2885 12.9809 10.2885 14.5718C10.2907 15.7597 9.94047 16.9215 9.28223 17.9103C8.62399 18.8992 7.68727 19.6706 6.59057 20.127C5.49387 20.5833 4.28645 20.7042 3.12104 20.4743C1.95562 20.2444 0.884567 19.6741 0.0433448 18.8354C0.00891888 18.5583 -0.00556695 18.2792 -4.13973e-07 18Z" fill="url(#paint10_linear_601_19)"/>
<path style="mix-blend-mode:screen" opacity="0.15" d="M11.1555 9.07881C11.7074 8.1527 12 7.09517 12.0027 6.01707C12.0005 4.8292 12.3507 3.66738 13.009 2.67855C13.6672 1.68973 14.6039 0.918339 15.7006 0.461943C16.7973 0.00554711 18.0047 -0.115346 19.1701 0.114553C20.3356 0.344452 21.4066 0.914815 22.2478 1.7535C23.0873 2.5928 23.6589 3.66219 23.8905 4.82641C24.1221 5.99063 24.0033 7.19738 23.549 8.29405C23.0947 9.39073 22.3255 10.328 21.3384 10.9875C20.3514 11.6469 19.191 11.9988 18.004 11.9987C17.0597 11.9967 16.1287 12.221 15.289 12.6528C13.7328 11.6848 12.338 10.4789 11.1555 9.07881Z" fill="url(#paint11_linear_601_19)"/>
</g>
<defs>
<linearGradient id="paint0_linear_601_19" x1="28.1939" y1="24.0013" x2="52.1953" y2="24.0013" gradientUnits="userSpaceOnUse">
<stop stop-color="#BF38FF"/>
<stop offset="1" stop-color="#1501FF"/>
</linearGradient>
<linearGradient id="paint1_linear_601_19" x1="29.908" y1="25.7154" x2="52.1952" y2="25.7154" gradientUnits="userSpaceOnUse">
<stop stop-color="#9225FF"/>
<stop offset="1" stop-color="#001AFF"/>
</linearGradient>
<linearGradient id="paint2_linear_601_19" x1="34.5341" y1="25.1322" x2="34.8218" y2="37.06" gradientUnits="userSpaceOnUse">
<stop stop-color="white"/>
<stop offset="0.12" stop-color="#E7E7E7"/>
<stop offset="0.38" stop-color="#A9A9A9"/>
<stop offset="0.75" stop-color="#474747"/>
<stop offset="1"/>
</linearGradient>
<linearGradient id="paint3_linear_601_19" x1="28.194" y1="11.9987" x2="52.1953" y2="11.9987" gradientUnits="userSpaceOnUse">
<stop stop-color="#FF8F6B"/>
<stop offset="1" stop-color="#FF237F"/>
</linearGradient>
<linearGradient id="paint4_linear_601_19" x1="30.7631" y1="10.7141" x2="52.1953" y2="10.7141" gradientUnits="userSpaceOnUse">
<stop stop-color="#FF2E2E"/>
<stop offset="1" stop-color="#BE14DA"/>
</linearGradient>
<linearGradient id="paint5_linear_601_19" x1="23.5127" y1="15.088" x2="47.3721" y2="17.5193" gradientUnits="userSpaceOnUse">
<stop stop-color="white"/>
<stop offset="0.12" stop-color="#E7E7E7"/>
<stop offset="0.38" stop-color="#A9A9A9"/>
<stop offset="0.75" stop-color="#474747"/>
<stop offset="1"/>
</linearGradient>
<linearGradient id="paint6_linear_601_19" x1="24.0013" y1="24.0013" x2="2.57506e-05" y2="24.0013" gradientUnits="userSpaceOnUse">
<stop stop-color="#FF5F5F"/>
<stop offset="1" stop-color="#DA14C6"/>
</linearGradient>
<linearGradient id="paint7_linear_601_19" x1="21.4282" y1="25.2859" x2="2.55444e-05" y2="25.2859" gradientUnits="userSpaceOnUse">
<stop stop-color="#FF3B2E"/>
<stop offset="1" stop-color="#EC11FF"/>
</linearGradient>
<linearGradient id="paint8_linear_601_19" x1="-11.2894" y1="16.8415" x2="12.5661" y2="19.2688" gradientUnits="userSpaceOnUse">
<stop stop-color="white"/>
<stop offset="0.12" stop-color="#E7E7E7"/>
<stop offset="0.38" stop-color="#A9A9A9"/>
<stop offset="0.75" stop-color="#474747"/>
<stop offset="1"/>
</linearGradient>
<linearGradient id="paint9_linear_601_19" x1="24.0012" y1="11.9987" x2="-0.00012207" y2="11.9987" gradientUnits="userSpaceOnUse">
<stop stop-color="#9321BB"/>
<stop offset="1" stop-color="#3E0EFF"/>
</linearGradient>
<linearGradient id="paint10_linear_601_19" x1="22.2872" y1="10.2846" x2="-1.28453e-06" y2="10.2846" gradientUnits="userSpaceOnUse">
<stop stop-color="#A954FF"/>
<stop offset="1" stop-color="#372AC8"/>
</linearGradient>
<linearGradient id="paint11_linear_601_19" x1="17.6572" y1="10.8717" x2="17.3735" y2="-1.05998" gradientUnits="userSpaceOnUse">
<stop stop-color="white"/>
<stop offset="0.12" stop-color="#E7E7E7"/>
<stop offset="0.38" stop-color="#A9A9A9"/>
<stop offset="0.75" stop-color="#474747"/>
<stop offset="1"/>
</linearGradient>
<clipPath id="clip0_601_19">
<rect width="52.1913" height="36" fill="white"/>
</clipPath>
</defs>
</svg>
