<svg width="60" height="59" viewBox="0 0 60 59" fill="none" xmlns="http://www.w3.org/2000/svg">
<g clip-path="url(#clip0_606_259)">
<path d="M45.46 53.6H41.02V58.04H45.46V53.6Z" fill="#FF3FD5"/>
<path d="M50.41 1.31H33.55V6.17999H50.55V1.32999L50.41 1.31ZM37.79 4.73999H35.79V2.73999H37.79V4.73999ZM42.03 4.73999H40.03V2.73999H42.03V4.73999Z" fill="#FF3FD5"/>
<path d="M27.5 52.39H40.42H46.07H58.99V46.73H27.5V52.39Z" fill="#FF3FD5"/>
<path d="M50.41 7.37H33.55V20.29H50.55V7.37H50.41ZM39.41 15.37C39.5082 15.5014 39.5613 15.661 39.5613 15.825C39.5613 15.989 39.5082 16.1486 39.41 16.28C39.295 16.3841 39.1528 16.4534 39 16.48C38.8496 16.4549 38.7103 16.3853 38.6 16.28L36.6 14.28C36.5018 14.1486 36.4487 13.989 36.4487 13.825C36.4487 13.661 36.5018 13.5014 36.6 13.37L38.6 11.37C38.7207 11.2493 38.8843 11.1815 39.055 11.1815C39.2256 11.1815 39.3893 11.2493 39.51 11.37C39.6307 11.4907 39.6985 11.6543 39.6985 11.825C39.6985 11.9956 39.6307 12.1593 39.51 12.28L37.89 13.9L39.41 15.37ZM42.33 17.49C41.93 17.49 41.73 17.29 41.62 16.89L41.12 10.83C41.1041 10.7393 41.1075 10.6463 41.1297 10.557C41.1519 10.4676 41.1926 10.384 41.2491 10.3113C41.3056 10.2386 41.3767 10.1786 41.4578 10.135C41.5388 10.0914 41.6281 10.0653 41.7199 10.0583C41.8117 10.0513 41.904 10.0635 41.9907 10.0943C42.0775 10.1251 42.1568 10.1736 42.2237 10.2369C42.2906 10.3001 42.3435 10.3767 42.379 10.4616C42.4145 10.5465 42.4319 10.6379 42.43 10.73L42.94 16.79C42.9097 16.9469 42.8367 17.0925 42.7291 17.2107C42.6215 17.3289 42.4834 17.4151 42.33 17.46V17.49ZM47.48 14.26L45.48 16.26C45.3698 16.3653 45.2304 16.435 45.08 16.46C44.9265 16.4357 44.7837 16.366 44.67 16.26C44.5718 16.1286 44.5187 15.969 44.5187 15.805C44.5187 15.641 44.5718 15.4814 44.67 15.35L46.29 13.74L44.67 12.12C44.6102 12.0602 44.5628 11.9893 44.5305 11.9112C44.4982 11.8332 44.4816 11.7495 44.4816 11.665C44.4816 11.5805 44.4982 11.4968 44.5305 11.4188C44.5628 11.3407 44.6102 11.2697 44.67 11.21C44.7297 11.1502 44.8007 11.1028 44.8788 11.0705C44.9568 11.0382 45.0405 11.0215 45.125 11.0215C45.2095 11.0215 45.2932 11.0382 45.3713 11.0705C45.4493 11.1028 45.5203 11.1502 45.58 11.21L47.58 13.21C47.6426 13.3763 47.6661 13.5548 47.6487 13.7316C47.6314 13.9085 47.5737 14.079 47.48 14.23V14.26Z" fill="#FF3FD5"/>
<path d="M7.30997 38.56C7.30997 39.4381 7.57039 40.2966 8.05826 41.0267C8.54614 41.7569 9.23957 42.3259 10.0509 42.662C10.8622 42.9981 11.7549 43.086 12.6162 42.9147C13.4775 42.7433 14.2686 42.3205 14.8896 41.6995C15.5105 41.0786 15.9333 40.2875 16.1046 39.4262C16.276 38.5649 16.1881 37.6722 15.852 36.8609C15.516 36.0495 14.9469 35.3561 14.2167 34.8682C13.4866 34.3804 12.6281 34.12 11.75 34.12C11.1658 34.116 10.5867 34.2281 10.0462 34.4498C9.50569 34.6716 9.01462 34.9985 8.60154 35.4115C8.18845 35.8246 7.86158 36.3157 7.63987 36.8562C7.41815 37.3966 7.30598 37.9758 7.30997 38.56Z" fill="#FF3FD5"/>
<path d="M11.75 44.18C10.5034 44.1787 9.26873 44.4232 8.11676 44.8997C6.96478 45.3761 5.91811 46.0751 5.03662 46.9566C4.15513 47.8381 3.45619 48.8848 2.97973 50.0368C2.50328 51.1888 2.25869 52.4234 2.26001 53.67V58.18H6.10003V53.74C6.10927 53.5829 6.17512 53.4345 6.28546 53.3224C6.3958 53.2102 6.54311 53.1418 6.70001 53.13C6.85796 53.1416 7.00648 53.2096 7.11847 53.3215C7.23045 53.4335 7.29842 53.582 7.31 53.74V58.18H16.19V53.74C16.1789 53.654 16.1863 53.5667 16.2117 53.4838C16.237 53.4009 16.2797 53.3243 16.337 53.2592C16.3942 53.1941 16.4647 53.142 16.5436 53.1063C16.6226 53.0705 16.7083 53.0521 16.795 53.0521C16.8817 53.0521 16.9674 53.0705 17.0464 53.1063C17.1254 53.142 17.1958 53.1941 17.253 53.2592C17.3103 53.3243 17.353 53.4009 17.3784 53.4838C17.4037 53.5667 17.4111 53.654 17.4 53.74V58.18H21.24V53.74C21.2271 51.2206 20.2253 48.807 18.4504 47.019C16.6754 45.2309 14.2692 44.2114 11.75 44.18Z" fill="#FF3FD5"/>
<path d="M43.24 34.12C42.621 34.12 42.0158 34.3036 41.5011 34.6475C40.9864 34.9914 40.5852 35.4803 40.3483 36.0522C40.1114 36.6241 40.0494 37.2535 40.1702 37.8606C40.291 38.4678 40.5891 39.0255 41.0268 39.4632C41.4646 39.901 42.0223 40.1991 42.6294 40.3199C43.2366 40.4406 43.8659 40.3786 44.4378 40.1417C45.0098 39.9048 45.4986 39.5036 45.8425 38.9889C46.1865 38.4742 46.37 37.8691 46.37 37.25C46.3674 36.4207 46.0368 35.6261 45.4503 35.0397C44.8639 34.4533 44.0693 34.1226 43.24 34.12Z" fill="#FF3FD5"/>
<path d="M27.49 26.55V45.55H59.09V26.55H27.49ZM43.24 41.69C42.359 41.692 41.4973 41.4324 40.764 40.9442C40.0306 40.456 39.4587 39.7611 39.1207 38.9476C38.7826 38.134 38.6937 37.2384 38.865 36.3743C39.0364 35.5102 39.4604 34.7163 40.0834 34.0934C40.7063 33.4704 41.5002 33.0464 42.3643 32.875C43.2285 32.7036 44.124 32.7926 44.9376 33.1306C45.7511 33.4687 46.446 34.0406 46.9342 34.774C47.4224 35.5073 47.682 36.369 47.68 37.25C47.6695 38.4243 47.1984 39.5476 46.368 40.378C45.5376 41.2084 44.4143 41.6796 43.24 41.69Z" fill="#FF3FD5"/>
<path d="M10.44 6.26001H8.42001V8.28001H10.44V6.26001Z" fill="#FF3FD5"/>
<path d="M15.49 6.26001H13.47V8.28001H15.49V6.26001Z" fill="#FF3FD5"/>
<path d="M20.53 6.26001H18.51V8.28001H20.53V6.26001Z" fill="#FF3FD5"/>
<path d="M3.47 13.32C3.48158 13.4779 3.54954 13.6264 3.66153 13.7384C3.77352 13.8504 3.92204 13.9184 4.07999 13.93H7.94998C8.03596 13.941 8.1233 13.9337 8.20621 13.9083C8.28911 13.883 8.36566 13.8403 8.43076 13.783C8.49585 13.7258 8.54799 13.6553 8.58371 13.5763C8.61943 13.4973 8.63791 13.4116 8.63791 13.3249C8.63791 13.2383 8.61943 13.1526 8.58371 13.0736C8.54799 12.9946 8.49585 12.9242 8.43076 12.8669C8.36566 12.8097 8.28911 12.7669 8.20621 12.7416C8.1233 12.7163 8.03596 12.7089 7.94998 12.72H4.81998V7.96997C4.81626 7.84251 4.77681 7.71867 4.70609 7.61257C4.63536 7.50648 4.53617 7.42241 4.41995 7.36996L2.91 6.75994L4.61996 5.34997C4.74542 5.2133 4.81657 5.03546 4.81998 4.84997V1.30996H7.94998C8.03596 1.32104 8.1233 1.31366 8.20621 1.28833C8.28911 1.26299 8.36566 1.22027 8.43076 1.16302C8.49585 1.10577 8.54799 1.03531 8.58371 0.956324C8.61943 0.877339 8.63791 0.791639 8.63791 0.704951C8.63791 0.618263 8.61943 0.532563 8.58371 0.453578C8.54799 0.374592 8.49585 0.30413 8.43076 0.246882C8.36566 0.189635 8.28911 0.146944 8.20621 0.121608C8.1233 0.0962708 8.03596 0.0888941 7.94998 0.0999706H4.11996C3.96202 0.111545 3.81349 0.179513 3.70151 0.291499C3.58952 0.403485 3.52155 0.552007 3.50998 0.709956V4.63995L1.18997 6.55996C1.08882 6.62056 1.0129 6.71558 0.976166 6.82763C0.939429 6.93968 0.944321 7.06122 0.98996 7.16995C1.00872 7.28039 1.0553 7.38423 1.12527 7.47171C1.19525 7.55918 1.28636 7.6274 1.38998 7.66995L3.50998 8.57995L3.47 13.32Z" fill="#FF3FD5"/>
<path d="M27.29 6.45999L24.95 4.53997V0.60998C24.9408 0.452904 24.8749 0.304524 24.7645 0.192347C24.6542 0.0801703 24.5069 0.0118273 24.35 -4.99608e-06H20.51C20.424 -0.0110815 20.3367 -0.00370479 20.2538 0.021632C20.1709 0.0469687 20.0943 0.0896895 20.0292 0.146937C19.9641 0.204185 19.912 0.274647 19.8763 0.353633C19.8406 0.432618 19.8221 0.518288 19.8221 0.604975C19.8221 0.691663 19.8406 0.777363 19.8763 0.856349C19.912 0.935334 19.9641 1.0058 20.0292 1.06304C20.0943 1.12029 20.1709 1.16301 20.2538 1.18835C20.3367 1.21369 20.424 1.22106 20.51 1.20999H23.64V4.73999C23.6419 4.92875 23.7131 5.11026 23.84 5.25L25.56 6.66L24.04 7.47C23.9223 7.52318 23.8221 7.60879 23.7513 7.71682C23.6804 7.82485 23.6419 7.95081 23.64 8.07998V12.72H20.51C20.424 12.7089 20.3367 12.7163 20.2538 12.7416C20.1709 12.767 20.0943 12.8097 20.0292 12.8669C19.9641 12.9242 19.912 12.9946 19.8763 13.0736C19.8406 13.1526 19.8221 13.2383 19.8221 13.325C19.8221 13.4117 19.8406 13.4974 19.8763 13.5764C19.912 13.6553 19.9641 13.7258 20.0292 13.783C20.0943 13.8403 20.1709 13.883 20.2538 13.9084C20.3367 13.9337 20.424 13.9411 20.51 13.93H24.35C24.5069 13.9182 24.6542 13.8498 24.7645 13.7376C24.8749 13.6255 24.9408 13.4771 24.95 13.32V8.47998L27.07 7.57C27.2545 7.45168 27.3951 7.27601 27.47 7.07C27.6 6.86 27.39 6.65999 27.29 6.45999Z" fill="#FF3FD5"/>
</g>
<defs>
<clipPath id="clip0_606_259">
<rect width="58.18" height="58.14" fill="white" transform="translate(0.910004)"/>
</clipPath>
</defs>
</svg>
