<svg width="58" height="58" viewBox="0 0 58 58" fill="none" xmlns="http://www.w3.org/2000/svg">
<g clip-path="url(#clip0_607_336)">
<path d="M0.72998 46.39H23.93H33.97H57.17V42.68H0.72998V46.39Z" fill="#FF3FD5"/>
<path d="M5.95999 33.84H27.3499V17.57H5.95999V33.84ZM19.96 23.6C19.8626 23.4702 19.81 23.3123 19.81 23.15C19.81 22.9877 19.8626 22.8298 19.96 22.7C20.16 22.39 20.57 22.49 20.87 22.7L23.38 25.21C23.4773 25.3398 23.53 25.4977 23.53 25.66C23.53 25.8223 23.4773 25.9802 23.38 26.11L20.87 28.62C20.7597 28.7253 20.6204 28.795 20.47 28.82C20.3924 28.82 20.3158 28.8019 20.2464 28.7672C20.1769 28.7325 20.1166 28.6821 20.07 28.62C19.9677 28.4923 19.912 28.3336 19.912 28.17C19.912 28.0064 19.9677 27.8477 20.07 27.72L22.17 25.61L19.96 23.6ZM14.74 29.32L17.19 21.79C17.2539 21.644 17.37 21.5271 17.5156 21.4622C17.6612 21.3973 17.8257 21.3891 17.9771 21.4391C18.1284 21.4891 18.2556 21.5938 18.3338 21.7327C18.412 21.8716 18.4357 22.0347 18.4 22.19L15.9 29.72C15.8669 29.8496 15.7878 29.9627 15.6773 30.0382C15.5669 30.1137 15.4327 30.1463 15.3 30.13H15.09C14.9444 30.0568 14.8265 29.9381 14.7544 29.792C14.6822 29.6458 14.6596 29.4801 14.69 29.32H14.74ZM9.91995 22.8L12.43 20.28C12.4897 20.2203 12.5606 20.1729 12.6387 20.1405C12.7168 20.1082 12.8005 20.0915 12.885 20.0915C12.9695 20.0915 13.0531 20.1082 13.1312 20.1405C13.2093 20.1729 13.2802 20.2203 13.34 20.28C13.3997 20.3398 13.4471 20.4107 13.4795 20.4888C13.5118 20.5668 13.5284 20.6505 13.5284 20.735C13.5284 20.8195 13.5118 20.9032 13.4795 20.9813C13.4471 21.0593 13.3997 21.1303 13.34 21.19L11.19 23.3L13.3 25.41C13.3973 25.5398 13.45 25.6977 13.45 25.86C13.45 26.0223 13.3973 26.1802 13.3 26.31C13.2523 26.3722 13.1911 26.4226 13.1208 26.4573C13.0506 26.492 12.9733 26.51 12.895 26.51C12.8167 26.51 12.7393 26.492 12.6691 26.4573C12.5989 26.4226 12.5376 26.3722 12.49 26.31L9.97995 23.8C9.56995 23.4 9.56996 23 9.86996 22.8H9.91995Z" fill="#FF3FD5"/>
<path d="M5.95999 16.27H27.3499V9.94H5.95999V16.27ZM14.09 11.95H16.5999V14.46H14.09V11.95ZM8.86996 11.95H11.38V14.46H8.86996V11.95Z" fill="#FF3FD5"/>
<path d="M41.0999 28.92C40.9816 28.7355 40.8059 28.5949 40.5999 28.52C40.411 28.4386 40.2051 28.4042 40 28.42C39.7844 28.4247 39.5753 28.4944 39.4 28.62C39.2053 28.7185 39.032 28.8544 38.89 29.02L38.59 29.62C38.5009 29.8454 38.4666 30.0887 38.4899 30.33C38.4738 30.5678 38.508 30.8062 38.59 31.03L38.89 31.63C39.0108 31.8163 39.1903 31.957 39.4 32.03C39.5824 32.1409 39.7875 32.2093 40 32.23C40.2155 32.2253 40.4247 32.1556 40.5999 32.03C40.7897 31.9284 40.9591 31.7928 41.0999 31.63C41.2999 31.43 41.3 31.23 41.4 31.03C41.4894 30.8082 41.5237 30.568 41.5 30.33C41.516 30.089 41.482 29.8472 41.4 29.62C41.4035 29.4886 41.3785 29.3579 41.3267 29.2371C41.2749 29.1163 41.1975 29.0081 41.0999 28.92Z" fill="#FF3FD5"/>
<path d="M47.13 28.92C47.0117 28.7354 46.836 28.5949 46.63 28.52C46.4044 28.4316 46.1612 28.3974 45.92 28.42H45.02V32.03H45.92C46.1612 32.0526 46.4044 32.0183 46.63 31.93C46.836 31.855 47.0117 31.7145 47.13 31.53C47.2499 31.3406 47.3504 31.1396 47.43 30.93C47.512 30.7062 47.5461 30.4677 47.53 30.23C47.5534 29.9887 47.5191 29.7454 47.43 29.52C47.4454 29.4015 47.4251 29.281 47.3717 29.1741C47.3182 29.0672 47.2341 28.9787 47.13 28.92Z" fill="#FF3FD5"/>
<path d="M0.72995 0V41.47H57.27V0H0.72995ZM38.99 8.72H50.34C50.4991 8.72 50.6517 8.78321 50.7643 8.89574C50.8768 9.00826 50.94 9.16087 50.94 9.32C50.94 9.47913 50.8768 9.63174 50.7643 9.74426C50.6517 9.85678 50.4991 9.92 50.34 9.92H38.99C38.8308 9.92 38.6782 9.85678 38.5657 9.74426C38.4532 9.63174 38.39 9.47913 38.39 9.32C38.39 9.16087 38.4532 9.00826 38.5657 8.89574C38.6782 8.78321 38.8308 8.72 38.99 8.72ZM33.99 15.04H50.36C50.507 15.0589 50.6422 15.1308 50.7401 15.2422C50.838 15.3535 50.8921 15.4967 50.8921 15.645C50.8921 15.7933 50.838 15.9365 50.7401 16.0478C50.6422 16.1592 50.507 16.2311 50.36 16.25H33.97C33.8229 16.2311 33.6878 16.1592 33.5899 16.0478C33.492 15.9365 33.4379 15.7933 33.4379 15.645C33.4379 15.4967 33.492 15.3535 33.5899 15.2422C33.6878 15.1308 33.8229 15.0589 33.97 15.04H33.99ZM28.57 16.95V34.52C28.5607 34.6771 28.4948 34.8255 28.3845 34.9376C28.2742 35.0498 28.1269 35.1182 27.97 35.13H5.26999C5.11309 35.1182 4.96578 35.0498 4.85544 34.9376C4.7451 34.8255 4.67919 34.6771 4.66995 34.52V9.44C4.6815 9.2847 4.74843 9.13871 4.85855 9.02859C4.96867 8.91848 5.11469 8.85155 5.26999 8.84H27.87C28.0253 8.85155 28.1713 8.91848 28.2814 9.02859C28.3915 9.13871 28.4585 9.2847 28.47 9.44V16.97L28.57 16.95ZM36.5 32.42C36.3247 32.5871 36.1217 32.7224 35.9 32.82C35.7 32.92 35.4 33.02 35.2 33.12C34.9762 33.202 34.7377 33.2361 34.5 33.22C34.1086 33.2308 33.7226 33.1265 33.39 32.92C33.0642 32.718 32.7622 32.4799 32.49 32.21C32.233 31.9125 32.0269 31.5746 31.88 31.21C31.6131 30.4975 31.6131 29.7125 31.88 29C31.9838 28.6153 32.1955 28.2684 32.49 28C32.7216 27.6876 33.0323 27.4426 33.39 27.29C33.764 27.0959 34.1786 26.9931 34.5999 26.99C35.0976 26.9682 35.5889 27.1086 36 27.39C36.3694 27.6191 36.6808 27.9306 36.9099 28.3L35.8 29C35.7 28.8 35.6999 28.7 35.5999 28.6L35.3 28.3C35.2 28.2 35.1 28.2 34.9 28.2H34.5999C34.381 28.2033 34.1683 28.273 33.99 28.4C33.8113 28.4786 33.6686 28.6213 33.59 28.8L33.2899 29.4C33.2077 29.5922 33.1734 29.8016 33.19 30.01C33.1739 30.2478 33.2079 30.4863 33.2899 30.71L33.59 31.31C33.7083 31.4945 33.884 31.6351 34.09 31.71C34.2824 31.7915 34.4916 31.8258 34.7 31.81H35.0999C35.1999 31.81 35.3 31.71 35.4 31.71C35.5 31.71 35.6 31.61 35.7 31.41C35.761 31.3624 35.8106 31.3018 35.8452 31.2326C35.8798 31.1634 35.8985 31.0874 35.9 31.01L37.01 31.71C36.8528 31.9669 36.6756 32.211 36.4799 32.44L36.5 32.42ZM42.7299 31.31C42.6259 31.6922 42.4183 32.0383 42.13 32.31C41.8517 32.5742 41.5467 32.8088 41.22 33.01C40.8534 33.214 40.4394 33.3175 40.02 33.31C39.5988 33.3058 39.1844 33.203 38.81 33.01C38.4865 32.8085 38.1849 32.5739 37.9099 32.31C37.6556 32.0125 37.4528 31.6745 37.31 31.31C37.1952 30.9537 37.1279 30.5839 37.11 30.21C37.1181 29.8318 37.1856 29.4572 37.31 29.1C37.4335 28.7264 37.6384 28.3848 37.9099 28.1C38.1874 27.836 38.4887 27.5984 38.81 27.39C39.1889 27.2188 39.6061 27.1498 40.02 27.19C40.438 27.1943 40.8491 27.2971 41.22 27.49C41.5446 27.6981 41.8492 27.9358 42.13 28.2C42.3872 28.4954 42.5903 28.834 42.7299 29.2C42.8447 29.5597 42.912 29.9329 42.93 30.31C42.9482 30.6635 42.8723 31.0155 42.71 31.33L42.7299 31.31ZM48.8499 31.41C48.7702 31.7775 48.5563 32.1019 48.25 32.32C48.0005 32.587 47.6924 32.7924 47.3499 32.92C46.9563 33.0361 46.55 33.1032 46.14 33.12H43.93V27.12H46.14C46.5835 27.1292 47.0239 27.1964 47.45 27.32C47.78 27.4751 48.0837 27.6809 48.3499 27.93C48.5836 28.2083 48.788 28.5099 48.96 28.83C49.084 29.2217 49.1513 29.6292 49.1599 30.04C49.0759 30.5091 48.9658 30.9732 48.83 31.43L48.8499 31.41ZM54.08 33.12H49.86V27.12H53.9799V28.32H51.26V29.52H53.57V30.72H51.19V32.02H54.01V33.13L54.08 33.12Z" fill="#FF3FD5"/>
<path d="M37.7899 56.34H33.37V47.72H24.53V56.36H20.11C19.9508 56.36 19.7982 56.4232 19.6857 56.5357C19.5732 56.6482 19.51 56.8008 19.51 56.96C19.51 57.1191 19.5732 57.2717 19.6857 57.3842C19.7982 57.4968 19.9508 57.56 20.11 57.56H37.69C37.8453 57.5484 37.9913 57.4815 38.1014 57.3714C38.2115 57.2613 38.2784 57.1153 38.2899 56.96C38.3085 56.8851 38.3095 56.807 38.2928 56.7317C38.2761 56.6564 38.2422 56.5859 38.1938 56.5259C38.1454 56.4658 38.0838 56.4178 38.0137 56.3856C37.9436 56.3533 37.867 56.3377 37.7899 56.34Z" fill="#FF3FD5"/>
</g>
<defs>
<clipPath id="clip0_607_336">
<rect width="56.54" height="57.54" fill="white" transform="translate(0.72998)"/>
</clipPath>
</defs>
</svg>
