<svg width="58" height="58" viewBox="0 0 58 58" fill="none" xmlns="http://www.w3.org/2000/svg">
<g clip-path="url(#clip0_607_329)">
<path d="M0.584991 46.63H23.905H33.995H57.315V42.9H0.584991V46.63Z" fill="#FF3FD5"/>
<path d="M36.515 13.42C35.0573 13.42 33.6324 13.8522 32.4204 14.662C31.2084 15.4719 30.2638 16.6229 29.706 17.9696C29.1482 19.3163 29.0022 20.7982 29.2866 22.2278C29.571 23.6574 30.2729 24.9706 31.3036 26.0014C32.3343 27.0321 33.6475 27.734 35.0772 28.0184C36.5068 28.3027 37.9887 28.1568 39.3354 27.599C40.6821 27.0412 41.8331 26.0965 42.6429 24.8845C43.4527 23.6725 43.885 22.2476 43.885 20.79C43.8745 18.8386 43.0946 16.9701 41.7148 15.5902C40.3349 14.2103 38.4664 13.4305 36.515 13.42Z" fill="#FF3FD5"/>
<path d="M47.725 18.67C47.4358 17.1098 46.8152 15.6298 45.905 14.33C45.8228 14.2051 45.7878 14.055 45.8061 13.9066C45.8244 13.7582 45.8949 13.6212 46.005 13.52L48.835 10.69L46.615 8.57001L43.785 11.4C43.6729 11.4909 43.5376 11.5485 43.3943 11.5661C43.2511 11.5838 43.1058 11.5609 42.975 11.5C41.6675 10.606 40.1903 9.9899 38.635 9.69C38.4963 9.6572 38.3722 9.57973 38.2819 9.46951C38.1916 9.35929 38.1399 9.22243 38.135 9.08V5.14001H34.985V9.04001C34.9962 9.18809 34.9492 9.33468 34.8539 9.44861C34.7587 9.56254 34.6227 9.6348 34.475 9.65001C32.9152 9.93498 31.4351 10.5523 30.135 11.46C30.0116 11.5414 29.8632 11.5761 29.7165 11.5578C29.5698 11.5395 29.4345 11.4693 29.335 11.36L26.405 8.53001L24.285 10.65L27.115 13.48C27.2059 13.5921 27.2635 13.7275 27.2811 13.8707C27.2988 14.0139 27.2759 14.1592 27.215 14.29C26.3179 15.597 25.6985 17.0741 25.395 18.63C25.3638 18.7695 25.2867 18.8945 25.1762 18.9851C25.0656 19.0758 24.9279 19.1268 24.785 19.13H20.875V22.26H24.805C24.8786 22.2531 24.9528 22.2609 25.0234 22.2829C25.094 22.3048 25.1595 22.3405 25.2162 22.388C25.2729 22.4354 25.3197 22.4935 25.3538 22.5591C25.3879 22.6247 25.4087 22.6964 25.415 22.77C25.7036 24.3304 26.3243 25.8105 27.235 27.11C27.3164 27.2334 27.3511 27.3818 27.3328 27.5285C27.3145 27.6752 27.2443 27.8105 27.135 27.91L24.305 30.84L26.525 33.06L29.355 30.24C29.4634 30.1462 29.5967 30.0858 29.7387 30.0663C29.8807 30.0467 30.0253 30.0689 30.155 30.13C31.4639 31.0236 32.9402 31.6428 34.495 31.95C34.6372 31.9776 34.7655 32.0533 34.8584 32.1644C34.9513 32.2755 35.003 32.4152 35.005 32.56V36.49H38.135V32.56C38.121 32.4129 38.1657 32.2663 38.2594 32.1521C38.353 32.0378 38.4881 31.9652 38.635 31.95C40.196 31.6635 41.6766 31.0427 42.975 30.13C43.1004 30.047 43.2517 30.0124 43.4007 30.0326C43.5497 30.0528 43.6863 30.1266 43.785 30.24L46.615 33.06L48.835 30.84L45.985 28.04C45.8952 27.9274 45.8383 27.7921 45.8206 27.6491C45.803 27.5062 45.8252 27.3611 45.885 27.23C46.7764 25.92 47.3954 24.444 47.705 22.89C47.7322 22.7495 47.8064 22.6224 47.9155 22.5297C48.0246 22.437 48.1619 22.3842 48.305 22.38H52.245V19.25H48.305C47.985 19.27 47.825 18.97 47.725 18.67ZM36.515 29.37C34.818 29.37 33.1592 28.8668 31.7482 27.924C30.3372 26.9812 29.2375 25.6412 28.5881 24.0734C27.9387 22.5056 27.7688 20.7805 28.0999 19.1161C28.4309 17.4518 29.2481 15.923 30.448 14.723C31.648 13.5231 33.1768 12.7059 34.8411 12.3749C36.5055 12.0438 38.2306 12.2137 39.7984 12.8631C41.3662 13.5125 42.7062 14.6122 43.649 16.0232C44.5918 17.4342 45.095 19.093 45.095 20.79C45.095 21.9167 44.8731 23.0325 44.4419 24.0734C44.0107 25.1144 43.3787 26.0603 42.582 26.857C41.7853 27.6537 40.8394 28.2857 39.7984 28.7169C38.7575 29.1481 37.6417 29.37 36.515 29.37Z" fill="#FF3FD5"/>
<path d="M0.584991 0.039978V41.72H57.415V0.039978H0.584991ZM6.33499 10.33C6.45534 10.3806 6.55826 10.4654 6.6311 10.5737C6.70394 10.6821 6.74353 10.8094 6.745 10.94V12.65H7.855C8.0119 12.6618 8.15918 12.7302 8.26952 12.8423C8.37985 12.9545 8.44576 13.1029 8.45499 13.26C8.44344 13.4153 8.37652 13.5613 8.2664 13.6714C8.15629 13.7815 8.0103 13.8484 7.855 13.86H6.13499C5.97969 13.8484 5.8337 13.7815 5.72359 13.6714C5.61347 13.5613 5.54655 13.4153 5.535 13.26V11.34L4.82499 11.04C4.63873 10.9191 4.49801 10.7397 4.425 10.53C4.325 10.33 4.42499 10.13 4.62499 9.92998L5.535 9.11998V7.49998C5.54655 7.34468 5.61347 7.19868 5.72359 7.08856C5.8337 6.97845 5.97969 6.91153 6.13499 6.89998H7.855C8.00206 6.91893 8.13719 6.99079 8.23512 7.10214C8.33304 7.21349 8.38705 7.35669 8.38705 7.50497C8.38705 7.65326 8.33304 7.79647 8.23512 7.90782C8.13719 8.01917 8.00206 8.09104 7.855 8.10999H6.745V9.41998C6.74129 9.6084 6.67035 9.78927 6.54499 9.92998L6.23499 10.23L6.33499 10.33ZM11.085 11.64H8.76499V9.31998H11.085V11.64ZM14.915 11.64H12.595V9.31998H14.915V11.64ZM18.655 11.34V13.26C18.6432 13.4169 18.5748 13.5642 18.4626 13.6745C18.3505 13.7848 18.2021 13.8507 18.045 13.86H16.335C16.1779 13.8507 16.0295 13.7848 15.9174 13.6745C15.8052 13.5642 15.7368 13.4169 15.725 13.26C15.7366 13.102 15.8045 12.9535 15.9165 12.8415C16.0285 12.7295 16.177 12.6616 16.335 12.65H17.445V10.94C17.4468 10.8108 17.4854 10.6848 17.5563 10.5768C17.6271 10.4688 17.7273 10.3832 17.845 10.33L18.045 10.23L17.745 9.92998C17.6196 9.78927 17.5487 9.6084 17.545 9.41998V8.03998H16.335C16.249 8.05105 16.1617 8.04368 16.0788 8.01834C15.9959 7.993 15.9193 7.95028 15.8542 7.89304C15.7891 7.83579 15.737 7.76533 15.7012 7.68634C15.6655 7.60735 15.647 7.52167 15.647 7.43498C15.647 7.34829 15.6655 7.26259 15.7012 7.18361C15.737 7.10462 15.7891 7.03416 15.8542 6.97691C15.9193 6.91967 15.9959 6.87695 16.0788 6.85161C16.1617 6.82627 16.249 6.81889 16.335 6.82997H18.045C18.2021 6.83921 18.3505 6.90512 18.4626 7.01546C18.5748 7.1258 18.6432 7.27308 18.655 7.42998V9.03998L19.565 9.84998C19.6654 9.90877 19.741 10.002 19.7778 10.1124C19.8146 10.2227 19.81 10.3427 19.765 10.45C19.746 10.563 19.6983 10.6692 19.6265 10.7584C19.5547 10.8477 19.4612 10.9171 19.355 10.96L18.655 11.34ZM53.575 23.04C53.5634 23.1953 53.4965 23.3413 53.3864 23.4514C53.2763 23.5615 53.1303 23.6284 52.975 23.64H48.975C48.6509 25.032 48.1038 26.3625 47.355 27.58L50.185 30.41C50.2471 30.4565 50.2975 30.5169 50.3322 30.5864C50.3669 30.6558 50.385 30.7324 50.385 30.81C50.385 30.8876 50.3669 30.9642 50.3322 31.0336C50.2975 31.103 50.2471 31.1634 50.185 31.21L46.985 34.31C46.8747 34.4153 46.7354 34.4849 46.585 34.51C46.4314 34.4857 46.2887 34.416 46.175 34.31L43.355 31.49C42.1554 32.2712 40.8184 32.8175 39.415 33.1V37.1C39.4032 37.2569 39.3348 37.4042 39.2226 37.5145C39.1105 37.6248 38.9621 37.6907 38.805 37.7H34.465C34.3097 37.6884 34.1637 37.6215 34.0536 37.5114C33.9435 37.4013 33.8765 37.2553 33.865 37.1V33.1C32.4754 32.7731 31.1458 32.2298 29.925 31.49L27.105 34.31C26.9913 34.416 26.8485 34.4857 26.695 34.51C26.5446 34.4849 26.4052 34.4153 26.295 34.31L23.165 31.18C23.0676 31.0502 23.015 30.8923 23.015 30.73C23.015 30.5677 23.0676 30.4098 23.165 30.28L25.985 27.45C25.195 26.2539 24.6448 24.9158 24.365 23.51H20.365C20.2097 23.4984 20.0637 23.4315 19.9536 23.3214C19.8435 23.2113 19.7765 23.0653 19.765 22.91V18.57C19.7742 18.4129 19.8401 18.2645 19.9505 18.1523C20.0608 18.0402 20.2081 17.9718 20.365 17.96H24.365C24.6947 16.576 25.2415 15.253 25.985 14.04L23.155 11.22C23.0568 11.0886 23.0037 10.929 23.0037 10.765C23.0037 10.601 23.0568 10.4414 23.155 10.31L26.285 7.17998C26.4164 7.08178 26.576 7.02873 26.74 7.02873C26.904 7.02873 27.0636 7.08178 27.195 7.17998L30.015 10.01C31.2141 9.22571 32.551 8.676 33.955 8.38998V4.38998C33.9645 4.23131 34.0318 4.0816 34.1442 3.96919C34.2566 3.85679 34.4063 3.78948 34.565 3.77998H38.985C39.1419 3.79182 39.2892 3.86016 39.3995 3.97234C39.5098 4.08451 39.5758 4.23291 39.585 4.38998V8.38998C40.9629 8.73376 42.2787 9.29045 43.485 10.04L46.305 7.20998C46.4364 7.11178 46.596 7.05873 46.76 7.05873C46.924 7.05873 47.0836 7.11178 47.215 7.20998L50.345 10.34C50.4503 10.4502 50.52 10.5896 50.545 10.74C50.545 10.819 50.527 10.897 50.4924 10.9681C50.4577 11.0391 50.4073 11.1013 50.345 11.15L47.525 13.97C48.3045 15.1705 48.8507 16.5071 49.135 17.91H53.135C53.2919 17.9218 53.4392 17.9901 53.5495 18.1023C53.6599 18.2145 53.7258 18.3629 53.735 18.52V23.04H53.575Z" fill="#FF3FD5"/>
<path d="M37.835 56.72H33.385V47.84H24.505V56.72H20.065C19.9179 56.7389 19.7828 56.8108 19.6849 56.9221C19.5869 57.0335 19.5329 57.1767 19.5329 57.325C19.5329 57.4732 19.5869 57.6164 19.6849 57.7278C19.7828 57.8391 19.9179 57.911 20.065 57.93H37.725C37.8821 57.9207 38.0305 57.8548 38.1426 57.7445C38.2548 57.6342 38.3232 57.4869 38.335 57.33C38.3517 57.2558 38.3514 57.1787 38.3338 57.1047C38.3163 57.0307 38.2822 56.9617 38.234 56.9028C38.1857 56.844 38.1248 56.797 38.0556 56.7653C37.9865 56.7336 37.911 56.7181 37.835 56.72Z" fill="#FF3FD5"/>
</g>
<defs>
<clipPath id="clip0_607_329">
<rect width="56.83" height="57.94" fill="white" transform="translate(0.584991)"/>
</clipPath>
</defs>
</svg>
